<svg viewBox="0 0 600 300" xmlns="http://www.w3.org/2000/svg" fill="none">
  <rect width="2048" height="1024" fill="" />

  <!-- HPC Nodes -->
  <circle cx="150" cy="90" r="15" fill="#2B2D42" />
  <circle cx="210" cy="60" r="15" fill="#2B2D42" />
  <circle cx="210" cy="120" r="15" fill="#2B2D42" />
  <circle cx="270" cy="30" r="15" fill="#2B2D42" />
  <circle cx="270" cy="90" r="15" fill="#2B2D42" />
  <circle cx="270" cy="150" r="15" fill="#2B2D42" />
  <circle cx="330" cy="60" r="15" fill="#2B2D42" />
  <circle cx="330" cy="120" r="15" fill="#2B2D42" />
  <circle cx="390" cy="90" r="15" fill="#2B2D42" />
  <circle cx="150" cy="150" r="15" fill="#2B2D42" />
  <circle cx="210" cy="180" r="15" fill="#2B2D42" />
  <circle cx="330" cy="180" r="15" fill="#2B2D42" />
  <circle cx="390" cy="150" r="15" fill="#2B2D42" />

  <!-- Connections -->
  <line x1="150" y1="90" x2="210" y2="60" stroke="#EF233C" stroke-width="3" />
  <line x1="150" y1="90" x2="210" y2="120" stroke="#EF233C" stroke-width="3" />
  <line x1="150" y1="90" x2="150" y2="150" stroke="#EF233C" stroke-width="3" />
  <line x1="210" y1="60" x2="270" y2="30" stroke="#EF233C" stroke-width="3" />
  <line x1="210" y1="60" x2="270" y2="90" stroke="#EF233C" stroke-width="3" />
  <line x1="210" y1="120" x2="270" y2="90" stroke="#EF233C" stroke-width="3" />
  <line x1="210" y1="120" x2="270" y2="150" stroke="#EF233C" stroke-width="3" />
  <line x1="270" y1="30" x2="330" y2="60" stroke="#EF233C" stroke-width="3" />
  <line x1="270" y1="90" x2="330" y2="60" stroke="#EF233C" stroke-width="3" />
  <line x1="270" y1="90" x2="330" y2="120" stroke="#EF233C" stroke-width="3" />
  <line x1="270" y1="150" x2="330" y2="120" stroke="#EF233C" stroke-width="3" />
  <line x1="270" y1="150" x2="330" y2="180" stroke="#EF233C" stroke-width="3" />
  <line x1="330" y1="60" x2="390" y2="90" stroke="#EF233C" stroke-width="3" />
  <line x1="330" y1="120" x2="390" y2="90" stroke="#EF233C" stroke-width="3" />
  <line x1="390" y1="90" x2="390" y2="150" stroke="#EF233C" stroke-width="3" />
  <line x1="150" y1="150" x2="210" y2="180" stroke="#EF233C" stroke-width="3" />
  <line x1="210" y1="180" x2="270" y2="150" stroke="#EF233C" stroke-width="3" />
  <line x1="330" y1="180" x2="390" y2="150" stroke="#EF233C" stroke-width="3" />

  <!-- TeraLab Text -->
  <text x="300" y="250" font-family="Arial, sans-serif" font-size="72" font-weight="bold" fill="#2B2D42" text-anchor="middle">
    TeraLab
  </text>

  <!-- Tagline -->
  <text x="300" y="280" font-family="Arial, sans-serif" font-size="20" fill="#8D99AE" text-anchor="middle">
    HPC &amp; Data Science Research
  </text>
</svg>
