<svg version="1.1" xmlns="http://www.w3.org/2000/svg" style="display: block;" viewBox="0 0 2048 1444" width="1000" height="705">
<defs>
	<linearGradient id="Gradient1" gradientUnits="userSpaceOnUse" x1="1456.77" y1="838.637" x2="1450.26" y2="907.991">
		<stop class="stop0" offset="0" stop-opacity="1" stop-color="rgb(196,170,156)"/>
		<stop class="stop1" offset="1" stop-opacity="1" stop-color="rgb(210,201,187)"/>
	</linearGradient>
	<linearGradient id="Gradient2" gradientUnits="userSpaceOnUse" x1="1485.44" y1="1059.83" x2="1541.06" y2="1047.38">
		<stop class="stop0" offset="0" stop-opacity="1" stop-color="rgb(201,220,201)"/>
		<stop class="stop1" offset="1" stop-opacity="1" stop-color="rgb(232,236,227)"/>
	</linearGradient>
	<linearGradient id="Gradient3" gradientUnits="userSpaceOnUse" x1="732.463" y1="986.894" x2="979.089" y2="1359.35">
		<stop class="stop0" offset="0" stop-opacity="1" stop-color="rgb(53,141,172)"/>
		<stop class="stop1" offset="1" stop-opacity="1" stop-color="rgb(117,170,191)"/>
	</linearGradient>
	<linearGradient id="Gradient4" gradientUnits="userSpaceOnUse" x1="1658.6" y1="1197.86" x2="1638.22" y2="1164.71">
		<stop class="stop0" offset="0" stop-opacity="1" stop-color="rgb(3,96,151)"/>
		<stop class="stop1" offset="1" stop-opacity="1" stop-color="rgb(4,125,187)"/>
	</linearGradient>
	<linearGradient id="Gradient5" gradientUnits="userSpaceOnUse" x1="1562.26" y1="1263.07" x2="1561.46" y2="1189.68">
		<stop class="stop0" offset="0" stop-opacity="1" stop-color="rgb(0,97,156)"/>
		<stop class="stop1" offset="1" stop-opacity="1" stop-color="rgb(25,155,211)"/>
	</linearGradient>
	<linearGradient id="Gradient6" gradientUnits="userSpaceOnUse" x1="1827.54" y1="852.484" x2="1570.06" y2="1011.7">
		<stop class="stop0" offset="0" stop-opacity="1" stop-color="rgb(2,51,95)"/>
		<stop class="stop1" offset="1" stop-opacity="1" stop-color="rgb(7,137,198)"/>
	</linearGradient>
</defs>
<path transform="translate(0,0)" fill="url(#Gradient6)" d="M 1504.79 703.46 C 1524.55 691.404 1545.66 676.679 1570.18 682.81 C 1576.89 684.488 1583.5 687.325 1589.66 690.441 C 1620.4 705.999 1650.04 725.677 1679.8 743.167 L 1728.84 772.12 C 1738.26 777.706 1748.36 783.007 1757.17 789.493 C 1770.08 795.962 1826.22 827.899 1834.22 835.334 C 1846 844.155 1852.44 856.861 1854.47 871.332 C 1856.65 886.776 1855.73 903.146 1855.71 918.706 L 1855.52 997.733 L 1855.82 1100.24 C 1855.86 1120.72 1857.03 1142.05 1854.63 1162.39 C 1853.38 1172.97 1850.65 1182.19 1844.16 1190.78 C 1840.37 1195.8 1835.77 1199.71 1830.62 1203.27 C 1817.66 1212.22 1803.6 1219.95 1790.07 1228.01 L 1716.19 1271.75 L 1631.77 1321.32 C 1617.56 1329.59 1603.46 1338.57 1588.79 1345.99 C 1581.82 1349.51 1574.79 1352.45 1566.99 1353.47 C 1556.5 1354.85 1546.78 1353.56 1537.03 1349.44 C 1524.7 1344.22 1513.09 1336.36 1501.46 1329.69 L 1420.2 1282.18 L 1331.77 1231.1 C 1314.95 1221.36 1296.8 1212.25 1281.4 1200.36 C 1270.17 1191.69 1264.59 1180.98 1261.2 1167.36 C 1285.42 1165.04 1309.81 1163 1333.89 1159.58 C 1349.47 1157.87 1365.14 1155.7 1380.79 1154.93 C 1396.37 1152.33 1412.41 1151.2 1428.13 1149.65 C 1442.61 1148.23 1457.24 1146.3 1471.76 1145.61 C 1474.82 1150.65 1478.09 1155.65 1480.74 1160.92 L 1640.65 1161.06 C 1648.77 1144.05 1658.21 1127.44 1666.9 1110.69 C 1682.83 1079.95 1698.59 1049.12 1714.18 1018.21 C 1688.27 973.592 1664.86 927.352 1640.01 882.118 L 1593 881.767 C 1585.8 865.44 1576.93 849.937 1569.62 833.668 C 1555.45 806.344 1539.78 778.126 1528.39 749.578 C 1519.89 734.599 1512.5 718.861 1504.79 703.46 z"/>
<path transform="translate(0,0)" fill="rgb(3,62,108)" d="M 1774.4 1180.65 C 1788.2 1181.65 1802.9 1187.31 1816.74 1186.36 C 1819.34 1185.2 1820.63 1183.39 1821.58 1180.71 C 1825.15 1170.64 1821.81 1159.49 1823.03 1149.13 C 1824.22 1139.02 1828.12 1129.37 1829.18 1119.21 C 1831.39 1098.29 1832.87 1076.19 1832.5 1055.16 C 1832.24 1039.89 1830.61 1024.65 1830.45 1009.38 C 1830.29 993.368 1832.03 977.492 1831.31 961.45 C 1830.78 949.643 1830 937.707 1828.57 925.974 C 1827.31 915.583 1825.24 904.971 1824.93 894.499 C 1824.54 880.966 1833.19 863.412 1826.04 850.688 C 1821.35 842.352 1808.48 845.864 1800.65 843.442 C 1791.47 840.599 1784.55 830.524 1780.34 822.414 C 1777.6 817.12 1774.46 809.766 1776.4 803.827 L 1777.99 803.362 C 1782.74 806.942 1788.47 809.624 1793.58 812.706 C 1807 820.7 1820.36 828.801 1833.65 837.009 L 1834.22 835.334 C 1846 844.155 1852.44 856.861 1854.47 871.332 C 1856.65 886.776 1855.73 903.146 1855.71 918.706 L 1855.52 997.733 L 1855.82 1100.24 C 1855.86 1120.72 1857.03 1142.05 1854.63 1162.39 C 1853.38 1172.97 1850.65 1182.19 1844.16 1190.78 C 1840.37 1195.8 1835.77 1199.71 1830.62 1203.27 C 1817.66 1212.22 1803.6 1219.95 1790.07 1228.01 L 1716.19 1271.75 L 1631.77 1321.32 C 1617.56 1329.59 1603.46 1338.57 1588.79 1345.99 C 1581.82 1349.51 1574.79 1352.45 1566.99 1353.47 C 1556.5 1354.85 1546.78 1353.56 1537.03 1349.44 C 1524.7 1344.22 1513.09 1336.36 1501.46 1329.69 L 1420.2 1282.18 L 1331.77 1231.1 C 1314.95 1221.36 1296.8 1212.25 1281.4 1200.36 C 1270.17 1191.69 1264.59 1180.98 1261.2 1167.36 C 1285.42 1165.04 1309.81 1163 1333.89 1159.58 C 1349.47 1157.87 1365.14 1155.7 1380.79 1154.93 C 1396.37 1152.33 1412.41 1151.2 1428.13 1149.65 C 1442.61 1148.23 1457.24 1146.3 1471.76 1145.61 C 1474.82 1150.65 1478.09 1155.65 1480.74 1160.92 L 1640.65 1161.06 C 1648.15 1162.3 1655.67 1163.47 1663.2 1164.55 C 1687.84 1170 1714.4 1172.9 1739.48 1175.93 C 1751.03 1177.32 1763.18 1177.36 1774.4 1180.65 z"/>
<path transform="translate(0,0)" fill="url(#Gradient5)" d="M 1480.74 1160.92 L 1640.65 1161.06 C 1637.14 1168.89 1633.43 1176.69 1630.23 1184.65 C 1624.13 1199.54 1604.43 1256.59 1597.5 1266.07 L 1598.62 1261.88 L 1597.7 1260.39 C 1593.76 1261.23 1589.98 1261.05 1586.02 1261.5 C 1574.75 1262.8 1564.86 1264.95 1553.35 1264.32 C 1543.78 1263.8 1533.7 1261.82 1524.17 1262.56 C 1521.2 1269.19 1529.75 1273.72 1528.99 1279.93 C 1525.85 1277.59 1515.07 1247.89 1512.57 1241.54 C 1512.43 1229.78 1497.77 1204.68 1493.63 1191.77 C 1489.69 1181.38 1485.04 1171.17 1480.74 1160.92 z"/>
<path transform="translate(0,0)" fill="rgb(58,157,206)" d="M 1480.74 1160.92 L 1640.65 1161.06 C 1637.14 1168.89 1633.43 1176.69 1630.23 1184.65 C 1628.96 1186.03 1627.46 1187.87 1625.74 1188.67 C 1619.87 1191.41 1600.27 1192.02 1592.61 1192.34 C 1574.82 1193.09 1556.99 1192.69 1539.23 1193.61 C 1528.71 1194.15 1506.57 1197.47 1497.66 1196.2 L 1493.63 1191.77 C 1489.69 1181.38 1485.04 1171.17 1480.74 1160.92 z"/>
<path transform="translate(0,0)" fill="rgb(6,108,162)" d="M 1471.76 1145.61 C 1474.82 1150.65 1478.09 1155.65 1480.74 1160.92 C 1485.04 1171.17 1489.69 1181.38 1493.63 1191.77 C 1497.77 1204.68 1512.43 1229.78 1512.57 1241.54 C 1508.56 1237.68 1508.35 1231.31 1505.38 1226.67 C 1474.39 1226.4 1442.47 1186.14 1411.14 1176.85 C 1389.46 1170.42 1358.35 1182.87 1342.6 1178.76 C 1345.72 1178.59 1348.34 1178.37 1351.27 1177.22 C 1349.67 1171.98 1349.84 1166.26 1349.66 1160.82 C 1344.46 1159.59 1339.93 1161.9 1334.67 1159.91 C 1334.41 1159.81 1334.15 1159.69 1333.89 1159.58 C 1349.47 1157.87 1365.14 1155.7 1380.79 1154.93 C 1396.37 1152.33 1412.41 1151.2 1428.13 1149.65 C 1442.61 1148.23 1457.24 1146.3 1471.76 1145.61 z"/>
<path transform="translate(0,0)" fill="rgb(58,157,206)" d="M 1471.76 1145.61 C 1474.82 1150.65 1478.09 1155.65 1480.74 1160.92 C 1470.1 1163.21 1398.34 1173.26 1394.19 1170.81 L 1395.67 1167.63 C 1393.07 1165.41 1388.24 1166.19 1384.91 1165.07 L 1384.85 1163.89 C 1386.45 1161.49 1387.39 1159.4 1388.18 1156.63 L 1387.22 1155.36 L 1380.79 1154.93 C 1396.37 1152.33 1412.41 1151.2 1428.13 1149.65 C 1442.61 1148.23 1457.24 1146.3 1471.76 1145.61 z"/>
<path transform="translate(0,0)" fill="url(#Gradient4)" d="M 1640.65 1161.06 C 1648.15 1162.3 1655.67 1163.47 1663.2 1164.55 C 1687.84 1170 1714.4 1172.9 1739.48 1175.93 C 1751.03 1177.32 1763.18 1177.36 1774.4 1180.65 L 1773.28 1180.84 C 1752.56 1184.25 1703.26 1168.33 1691.24 1172.14 C 1681.44 1175.24 1674.29 1188.55 1665.88 1194.55 C 1652.53 1204.07 1634.62 1208.01 1620.02 1215.83 L 1602.93 1259.21 C 1601 1264.21 1599.98 1269.62 1597.71 1274.44 C 1596.21 1277.64 1593.81 1281.75 1590.83 1283.7 L 1590.56 1282.13 C 1590.78 1281.83 1591.01 1281.53 1591.23 1281.22 C 1594.18 1276.99 1594.82 1270.76 1597.5 1266.07 C 1604.43 1256.59 1624.13 1199.54 1630.23 1184.65 C 1633.43 1176.69 1637.14 1168.89 1640.65 1161.06 z"/>
<path transform="translate(0,0)" fill="rgb(58,157,206)" d="M 1627.58 856.505 C 1624.71 847.58 1620.93 839.022 1618.1 830.101 C 1627.09 846.647 1633.55 864.954 1641.17 882.201 C 1656.5 879.426 1694.06 870.976 1708.27 871.397 C 1695.45 874.617 1681.13 877.762 1667.91 878.533 C 1673.23 885.875 1676.28 894.472 1681.17 902.092 L 1682.03 901.83 C 1679.04 895.938 1674.71 888.3 1674.1 881.688 L 1674.99 881.037 C 1679 884.167 1680.07 893.302 1682.6 897.846 C 1686.19 904.279 1690.96 910.335 1694.83 916.649 C 1708.44 938.82 1721.05 961.717 1729.14 986.541 L 1726.98 997.389 C 1726.07 996.106 1726.37 996.878 1726.32 995.067 C 1726.21 990.571 1723.83 975.272 1720.65 972.277 C 1721.01 973.962 1721.33 975.657 1721.67 977.347 C 1723.41 986.184 1722.65 996.433 1722.72 1005.48 C 1732.88 995.407 1740.93 983.015 1750.3 972.202 C 1750.61 974.725 1746.8 978.74 1745.17 980.818 C 1735.22 993.5 1724.67 1005.77 1714.96 1018.63 C 1721.5 1026.96 1734.94 1041.35 1738.91 1050.25 L 1737.66 1050.38 C 1735.24 1047.43 1731.91 1041.51 1728.61 1040.08 C 1727.04 1042.77 1726.89 1047.89 1727.53 1050.92 C 1727.65 1051.49 1727.95 1052.2 1728.15 1052.72 C 1729.75 1051.81 1730.69 1049.98 1731.75 1048.49 C 1733.22 1053.2 1707.96 1111 1703.59 1119.39 C 1698 1130.1 1691.18 1143.87 1681.99 1151.84 L 1681.12 1151.55 C 1682.24 1148.16 1685.98 1147.15 1685.83 1143.65 C 1684.16 1143.95 1683.89 1144.61 1682.83 1145.81 C 1679.04 1150.12 1663.17 1155.06 1664.05 1162.43 C 1664.11 1162.93 1664.4 1163.46 1664.62 1163.91 L 1663.2 1164.55 C 1655.67 1163.47 1648.15 1162.3 1640.65 1161.06 C 1648.77 1144.05 1658.21 1127.44 1666.9 1110.69 C 1682.83 1079.95 1698.59 1049.12 1714.18 1018.21 C 1688.27 973.592 1664.86 927.352 1640.01 882.118 L 1593 881.767 C 1585.8 865.44 1576.93 849.937 1569.62 833.668 C 1569.86 833.837 1570.1 834.004 1570.34 834.176 C 1572.38 835.639 1573.79 836.919 1575.44 838.812 C 1585.42 850.259 1606.12 843.098 1617.87 850.712 C 1614.74 850.619 1611.05 850.122 1608.02 850.909 L 1606.42 852.769 C 1609.61 855.989 1618.05 856.535 1622.54 856.58 C 1624.22 856.59 1625.9 856.565 1627.58 856.505 z"/>
<path transform="translate(0,0)" fill="rgb(3,62,108)" d="M 1504.79 703.46 C 1524.55 691.404 1545.66 676.679 1570.18 682.81 C 1576.89 684.488 1583.5 687.325 1589.66 690.441 C 1620.4 705.999 1650.04 725.677 1679.8 743.167 L 1728.84 772.12 C 1738.26 777.706 1748.36 783.007 1757.17 789.493 C 1753.25 789.931 1751.58 788.522 1748.63 786.283 C 1745.64 784.019 1734.15 784.905 1729.81 784.132 C 1723.68 782.993 1717.69 781.167 1711.97 778.69 C 1689.6 768.867 1691.29 755.006 1675.68 743.296 C 1670.72 739.578 1660.24 732.305 1654.07 731.396 C 1645.78 730.175 1636.53 735.482 1628.49 731.35 C 1617.34 725.624 1613.71 715.397 1610.22 704.275 C 1603.3 700.105 1596.34 695.741 1589.03 692.299 C 1587.98 691.805 1583.47 689.788 1582.47 690.04 C 1578.73 690.979 1574.94 696.442 1570.62 697.804 C 1560.94 700.852 1550.43 700.877 1540.82 704.52 C 1529.45 708.83 1523.83 716.82 1519.03 727.629 C 1521.99 733.07 1525.18 738.512 1527.63 744.2 C 1528.61 746.452 1529.32 747.192 1528.39 749.578 C 1519.89 734.599 1512.5 718.861 1504.79 703.46 z"/>
<path transform="translate(0,0)" fill="rgb(233,123,44)" d="M 678.941 860.81 C 706.474 863.042 744.855 863.113 771.204 854.843 C 812.903 841.755 839.774 817.653 886.094 814.38 C 917.013 812.195 948.934 813.771 979.941 813.805 C 1011.77 813.841 1050.47 811.819 1081.68 814.816 C 1130.74 819.53 1216.52 850.321 1257.72 876.677 C 1288.54 896.39 1326.08 931.14 1354.93 955.314 C 1401.42 994.26 1448.65 1032.78 1494.39 1072.55 C 1473.45 1074.25 1452.32 1074.76 1431.34 1075.71 C 1386.4 1035.91 1340.56 997.144 1293.85 959.437 C 1274.34 943.39 1255.75 924.657 1234.37 911.146 C 1213.24 897.792 1190.62 889.106 1167.32 880.432 C 1141.16 870.691 1112.48 860.567 1084.77 856.352 C 1065.81 853.468 1046.38 854.002 1027.26 854.05 L 961.933 854.129 C 932.649 854.033 899.82 850.905 871.26 857.783 C 834.777 866.569 804.021 890.176 767.365 898.402 C 742.104 904.072 716.198 902.39 690.535 902.325 C 667.703 902.268 644.82 902.758 621.979 902.858 L 572.391 903.129 C 563.166 903.171 553.537 903.734 544.364 902.798 C 539.259 902.277 534.291 901.053 529.993 898.131 C 525.584 895.133 522.613 890.53 521.961 885.212 C 521.288 879.718 522.986 874.433 526.312 870.078 C 531.544 863.226 538.352 861.433 546.461 860.504 C 566.997 858.354 588.886 860.52 609.596 860.521 L 654.126 860.475 C 662.194 860.464 670.958 859.826 678.941 860.81 z"/>
<path transform="translate(0,0)" fill="url(#Gradient3)" d="M 1363.75 1041.41 C 1364.48 1041.24 1365.47 1041.18 1366.21 1041.14 C 1375.32 1040.62 1405.41 1070.64 1413.04 1077.66 L 1223.95 1099.73 C 1191.38 1103.51 1158.43 1108.64 1125.71 1110.53 C 1084.9 1112.88 1043.37 1111.6 1002.5 1111.63 C 982.484 1111.65 962.025 1110.99 942.116 1113.22 C 920.684 1115.61 899.989 1120.66 880.643 1130.35 C 857.193 1142.09 836.93 1159.15 816.637 1175.54 C 781.501 1203.92 741.391 1239.68 703.721 1263.97 C 654.949 1295.41 609.73 1293.83 553.897 1293.89 C 540.453 1293.9 520.839 1295.81 508.223 1293.06 C 508.829 1290.58 509.446 1288.07 509.577 1285.51 C 509.709 1282.96 509.28 1280.28 507.316 1278.45 C 505.932 1277.16 504.234 1276.53 502.388 1276.27 C 483.078 1273.61 461.329 1275.45 441.743 1275.58 C 413.081 1275.77 384.433 1275.3 355.771 1275.22 C 354.044 1275.26 352.319 1275.38 350.6 1275.56 C 347.341 1275.87 343.926 1276.37 341.908 1279.28 C 339.501 1282.74 340.433 1287.94 340.91 1291.87 C 332.949 1291.92 324.988 1291.9 317.028 1291.81 C 313.261 1287.9 310.65 1284.91 309.709 1279.28 C 308.407 1271.48 311.658 1265.98 316.053 1260.04 L 417.581 1260.36 C 419.126 1262.46 420.881 1264.59 422.923 1266.22 C 425.408 1268.21 428.726 1269.39 431.917 1268.86 C 436.889 1268.03 440.107 1263.75 442.98 1260.02 C 475.107 1260.13 507.234 1260.03 539.36 1259.72 C 586.386 1259.27 634.208 1262.24 676.584 1238.17 C 696.016 1227.13 713.414 1212.25 730.804 1198.3 C 752.91 1180.6 774.899 1162.76 796.77 1144.77 C 827.768 1119.29 856.04 1097.68 895.066 1085.96 C 962.213 1065.8 1035.72 1078.02 1104.89 1072.63 C 1135.31 1070.27 1165.69 1065.45 1195.97 1061.68 L 1363.75 1041.41 z"/>
<path transform="translate(0,0)" fill="rgb(6,108,162)" d="M 1188.32 992.531 C 1230.13 991.233 1272.09 991.708 1313.92 991.872 C 1327.95 1004.12 1342.15 1016.17 1356.52 1028.01 L 999.921 1029.5 C 968.902 1029.51 937.883 1029.29 906.866 1028.85 C 881.299 1028.58 855.344 1027.56 829.956 1031.12 C 768.057 1039.78 745.37 1078.43 694.052 1096.46 C 647.782 1112.71 586.398 1107.96 537.75 1107.88 L 387.647 1107.86 L 387.703 1087.02 C 412.22 1086.93 436.736 1086.63 461.248 1086.12 L 469.398 1094.05 C 481.216 1093.91 494.428 1095.75 506.013 1094.08 C 510.264 1093.47 514.829 1092 517.402 1088.32 C 520.172 1084.36 519.501 1080.17 518.913 1075.7 C 566.092 1075.62 638.03 1079.41 681.376 1065.42 C 700.181 1059.35 715.004 1048.23 731.055 1037.27 C 772.787 1008.75 809.907 997.273 860.496 995.047 C 868.735 994.685 910.41 993.272 915.884 995.203 C 916.158 995.299 917.453 996.557 917.715 996.815 C 918.216 997.309 918.677 997.842 919.182 998.331 C 920.85 999.95 922.099 1000.66 924.435 1000.84 C 931.4 1001.35 938.834 1000.7 945.854 1000.63 L 989.074 1000.45 C 1001.68 1000.45 1016.24 1002.35 1028.64 1000.87 C 1032.04 1000.46 1033.96 996.72 1035.69 994.111 C 1051.24 992.456 1068.07 993.465 1083.73 993.319 L 1188.32 992.531 z"/>
<path transform="translate(0,0)" fill="rgb(31,130,75)" d="M 829.283 543.772 C 831.035 541.803 832.497 539.414 835.051 538.676 C 847.975 546.233 860.019 555.593 872.456 563.94 L 938.4 607.571 C 958.792 621.11 979.58 637.083 1003.29 644.193 C 1018.69 648.81 1034.66 648.736 1050.58 648.816 C 1095.1 649.041 1140.76 644.64 1182.47 663.556 C 1217.31 679.359 1246.21 710.725 1273.97 736.453 L 1342.12 799.542 C 1389.12 842.53 1436.34 885.269 1483.78 927.758 L 1485.5 928.906 C 1480.46 931.639 1476.88 934.966 1475.25 940.591 C 1473.34 947.178 1473.82 957.025 1467.32 960.732 C 1467.11 960.851 1466.9 960.96 1466.69 961.074 C 1460.21 955.104 1453.76 949.1 1447.35 943.064 L 1433.55 930.928 L 1267.01 777.997 C 1241.81 755.024 1212.66 725.19 1185.69 705.658 C 1174.76 697.739 1163.45 692.216 1150.44 688.58 C 1110.16 677.316 1060.75 686.701 1018.85 682.125 C 1002.73 680.364 987.406 676.282 972.759 669.266 C 965.607 665.783 958.651 661.913 951.919 657.674 C 937.728 648.773 816.656 568.902 814.364 566.038 L 815.023 563.149 C 821.935 557.398 823.57 550.007 829.283 543.772 z"/>
<path transform="translate(0,0)" fill="rgb(232,239,217)" d="M 815.023 563.149 C 821.935 557.398 823.57 550.007 829.283 543.772 C 829.53 544.142 829.765 544.519 830.022 544.881 C 837.856 555.922 874.863 566.692 872.759 581.961 C 872.394 584.612 870.817 586.78 868.692 588.339 C 865.93 590.365 862.268 591.012 858.953 590.185 C 847.346 587.293 828.465 567.064 815.023 563.149 z"/>
<path transform="translate(0,0)" fill="rgb(131,177,151)" d="M 1483.78 927.758 L 1485.5 928.906 C 1480.46 931.639 1476.88 934.966 1475.25 940.591 C 1473.34 947.178 1473.82 957.025 1467.32 960.732 C 1467.11 960.851 1466.9 960.96 1466.69 961.074 C 1460.21 955.104 1453.76 949.1 1447.35 943.064 L 1433.55 930.928 C 1445.38 931.186 1457.3 929.927 1469.18 929.94 C 1473.91 929.602 1479.42 929.728 1483.78 927.758 z"/>
<path transform="translate(0,0)" fill="rgb(161,193,76)" d="M 826.214 692.902 L 829.603 688.772 C 838.208 688.053 926.864 740.586 948.688 746.229 C 972.984 752.511 998.421 750.917 1023.27 750.359 C 1129.58 747.975 1184.16 737.993 1271.41 811.743 C 1315.38 848.914 1358.68 886.828 1402.95 923.67 C 1415.73 934.312 1428.08 945.751 1441.22 955.926 C 1441.15 959.15 1441.71 960.89 1439.39 963.376 C 1433.77 965.204 1427.88 962.801 1422.23 964.686 C 1414.26 968.674 1407.14 968.568 1399.53 974.113 L 1391.87 967.762 C 1358.28 939.752 1325 911.385 1292.02 882.665 C 1261.55 856.245 1229.98 823.715 1193.75 805.523 C 1158.87 788.013 1124.5 788.556 1086.46 789.327 C 1042.59 790.215 980.082 794.47 938.649 782.963 C 909.464 774.858 883.834 757.829 857.724 743.075 C 844.337 735.511 830.402 728.649 817.327 720.57 C 815.381 719.367 812.715 718.327 812.186 716.074 C 813.632 714.665 814.641 713.35 815.707 711.631 L 816.066 711.043 C 820.654 705.343 823.686 699.768 826.214 692.902 z"/>
<path transform="translate(0,0)" fill="rgb(232,239,217)" d="M 816.066 711.043 C 820.654 705.343 823.686 699.768 826.214 692.902 C 836.093 698.269 878.136 717.604 880.509 727.881 C 880.81 729.18 880.604 731.14 879.817 732.206 C 877.962 734.716 875.345 736.712 872.169 737.145 C 861.485 738.599 827.968 715.95 816.066 711.043 z"/>
<path transform="translate(0,0)" fill="rgb(6,108,162)" d="M 1404.83 1140.43 L 1200.42 1161.85 C 1165.18 1165.6 1129.76 1170.48 1094.41 1172.89 C 1060.84 1175.18 1026.42 1173.76 992.753 1173.78 C 972.512 1173.79 950.969 1172.56 931.223 1177.6 C 900.244 1185.52 870.732 1215.54 846.841 1235.98 C 839.91 1241.91 831.703 1250.8 822.548 1252.87 C 817.25 1254.07 811.477 1252.85 806.933 1249.93 C 801.774 1246.62 798.435 1241.34 797.461 1235.3 C 796.665 1230.38 797.551 1224.16 800.662 1220.11 C 809.319 1208.85 866.745 1163.75 879.821 1155.83 C 891.418 1148.81 904.489 1142.63 917.522 1138.82 C 939.553 1132.39 962.706 1132.4 985.449 1132.21 C 1021.73 1131.89 1058.8 1134.27 1094.97 1131.57 C 1127.88 1129.11 1160.87 1124.59 1193.67 1120.82 L 1378.24 1099.46 C 1384.11 1106.44 1402.89 1132.84 1404.83 1140.43 z"/>
<path transform="translate(0,0)" fill="rgb(172,211,221)" d="M 1125.53 1060.23 C 1101.56 1063.28 1077.75 1063.07 1053.65 1063.11 L 972.757 1063.02 C 936.249 1062.96 899.817 1063.13 864.634 1074.13 C 817.817 1088.76 790.325 1114.76 751.376 1141.68 C 715.179 1166.69 671.097 1185.45 627.805 1193.5 C 614.884 1195.86 601.817 1197.34 588.695 1197.91 C 516.102 1200.65 443.025 1198.54 370.359 1198.67 L 254.939 1198.57 C 236.517 1198.61 217.567 1199.81 199.198 1198.96 C 196.486 1198.83 193.184 1198.65 190.984 1196.94 C 187.477 1194.21 187.092 1189.17 186.985 1185.08 C 186.879 1181.07 186.972 1175.62 190.104 1172.7 C 191.957 1170.97 194.366 1170.38 196.816 1170.11 C 214.562 1168.18 238.875 1169.73 257.245 1169.69 L 390.176 1169.64 L 492.101 1169.47 C 548.476 1169.61 598.054 1171.81 652.998 1155.38 C 703.409 1140.3 732.002 1117.09 773.209 1086.76 C 836.509 1040.17 894.394 1044.14 968.777 1044.58 C 993.756 1044.74 1019.71 1043 1044.52 1044.83 C 1045.4 1048.83 1046.02 1052.83 1049.39 1055.5 C 1051.97 1057.55 1116.13 1058.29 1122.32 1057.34 C 1122.79 1057.26 1123.25 1057.17 1123.72 1057.09 C 1125.38 1054.39 1128.85 1046.26 1131.23 1044.98 C 1145.94 1043.23 1162 1044.59 1176.88 1044.78 C 1191.97 1044.97 1207.51 1044.36 1222.53 1045.58 C 1218.76 1047.79 1136.63 1058.75 1125.53 1060.23 z"/>
<path transform="translate(0,0)" fill="rgb(163,130,97)" d="M 1408.27 831.169 C 1395.01 812.983 1383.47 793.081 1371.39 774.08 C 1348.63 737.538 1325.35 701.326 1301.55 665.456 C 1287.61 644.41 1274.09 621.746 1256.52 603.508 C 1221.02 566.659 1167.06 566.265 1126.49 537.876 C 1098.83 518.52 1069.32 476.666 1047.65 449.722 C 1036.46 435.807 1004.43 399.082 998.651 386.339 L 999.09 384.674 C 1001.76 384.198 1005.43 384.58 1007.02 382.417 C 1006.14 380.835 1005.16 379.994 1005.63 378.145 C 1007.46 370.871 1020.3 366.236 1025.8 362.063 C 1046.06 386.568 1065.5 411.821 1085.17 436.797 C 1103.99 460.68 1128.86 497.323 1154 513.283 C 1195.47 539.617 1233.83 534.646 1275.42 573.098 C 1294.44 590.675 1308.18 613.028 1322.26 634.511 C 1336.61 656.554 1350.79 678.714 1364.78 700.989 C 1393.9 746.307 1422.58 791.905 1450.81 837.776 C 1447.34 839.141 1444.3 838.421 1440.72 837.915 C 1429.88 835.94 1418.86 834.249 1408.27 831.169 z"/>
<path transform="translate(0,0)" fill="rgb(247,207,49)" d="M 1301.42 328.071 C 1314.82 332.429 1321.41 332.214 1334.15 326.608 C 1339.29 357.454 1349.44 394.556 1345.72 425.63 C 1342.28 454.296 1321.42 482.026 1325.2 511.27 C 1328.08 533.577 1363.2 590.549 1375.78 613.361 C 1408.45 673.291 1441.88 732.809 1476.04 791.901 C 1491.55 819.307 1508.2 846.134 1522.66 874.127 C 1519.52 877.417 1513.96 877.419 1509.66 877.535 C 1501.13 877.765 1491.34 876.736 1483.35 873.598 C 1474.98 861.585 1468.22 847.971 1460.92 835.256 L 1413.57 751.609 L 1348.6 636.243 C 1333.8 610.084 1318.12 584.395 1304.84 557.401 C 1298.78 545.077 1291.41 529.624 1289.83 515.918 C 1285.04 474.185 1307.87 454.038 1311.94 419.336 C 1313.25 408.132 1311.16 396.886 1309.56 385.819 C 1306.09 373.355 1307.44 359.921 1304.01 347.174 C 1303.14 340.813 1302.16 334.447 1301.42 328.071 z"/>
<path transform="translate(0,0)" fill="rgb(225,42,42)" d="M 1423.43 271.147 C 1433.86 270.967 1444.33 271.253 1454.76 271.355 C 1455.4 279.652 1455.87 287.971 1457.38 296.167 C 1458.94 302.186 1458.67 309.394 1459.05 315.655 C 1459.91 329.654 1460.43 344.363 1463 358.147 C 1469.14 434.97 1467.6 438.466 1437.86 508.35 C 1431.99 522.13 1424.14 537.393 1422.56 552.38 C 1421.62 561.341 1424.45 569.234 1427.71 577.471 C 1438.91 605.734 1454.71 633.245 1468.51 660.4 C 1496.22 714.943 1524.7 769.388 1550.84 824.691 C 1546.59 831.873 1537.68 842.601 1529.15 844.817 C 1526.62 845.473 1525.55 845.038 1523.28 843.921 C 1520.28 839.679 1518.32 834.975 1514.35 831.535 C 1505.34 815.93 1498.28 798.298 1490.33 782.063 L 1447.45 695.999 C 1429.86 659.945 1408.98 624.153 1394.65 586.749 C 1390.67 576.38 1387.83 565.555 1388.14 554.37 C 1389.22 515.483 1422.95 468.702 1431.1 428.5 C 1435.82 405.219 1431.03 377.157 1429.25 353.505 C 1427.03 326.073 1425.09 298.619 1423.43 271.147 z"/>
<path transform="translate(0,0)" fill="rgb(249,238,230)" d="M 1439.42 302.898 C 1440.94 300.613 1443 297.543 1445.39 296.14 C 1447.64 294.814 1451.39 295.158 1453.74 296.012 C 1454.9 296.436 1455.21 296.643 1456.53 296.416 C 1456.82 296.366 1457.09 296.25 1457.38 296.167 C 1458.94 302.186 1458.67 309.394 1459.05 315.655 C 1459.91 329.654 1460.43 344.363 1463 358.147 C 1460.24 359.151 1457.32 361.016 1454.44 361.351 C 1452.03 361.633 1449.01 361.048 1447.1 359.473 C 1439.12 352.896 1439.92 313.937 1439.42 302.898 z"/>
<path transform="translate(0,0)" fill="rgb(198,178,165)" d="M 1505.53 1085.48 C 1512.66 1084.35 1515.87 1085.6 1522.22 1088.91 C 1536.19 1100.34 1550.7 1110.91 1564.28 1122.82 C 1556.22 1124.41 1546.77 1127.14 1538.56 1126.89 C 1532.01 1127.41 1525.31 1127.71 1518.89 1129.17 L 1514.88 1128.96 C 1511.85 1129.34 1508.52 1130.07 1505.48 1129.87 L 1495.73 1130.82 C 1484.96 1132.02 1474.15 1133.48 1463.36 1134.37 C 1459.46 1134.86 1455.35 1135.14 1451.52 1135.91 L 1446.77 1135.95 C 1443.79 1136.28 1440.57 1136.91 1437.59 1136.88 L 1420.97 1138.77 L 1415.77 1139.18 L 1404.83 1140.43 C 1402.89 1132.84 1384.11 1106.44 1378.24 1099.46 C 1379.86 1098.99 1381.98 1099.06 1383.69 1098.92 C 1389.36 1097.69 1395.26 1097.29 1401.04 1096.87 C 1404.85 1095.89 1409.27 1095.86 1413.21 1095.51 C 1416.99 1094.15 1422.39 1094.06 1426.44 1093.5 L 1434.3 1092.83 L 1447.79 1091.15 C 1454.5 1090.24 1461.17 1089.29 1467.94 1088.95 C 1471.77 1087.96 1475.82 1088.05 1479.77 1087.9 C 1483.25 1087.09 1486.9 1087.06 1490.47 1086.85 C 1495.28 1085.84 1500.6 1085.84 1505.53 1085.48 z"/>
<path transform="translate(0,0)" fill="rgb(74,148,178)" d="M 1413.21 1095.51 C 1416.99 1094.15 1422.39 1094.06 1426.44 1093.5 C 1432.87 1106.79 1455.31 1119.52 1451.52 1135.91 L 1446.77 1135.95 C 1443.79 1136.28 1440.57 1136.91 1437.59 1136.88 L 1420.97 1138.77 L 1415.77 1139.18 L 1404.83 1140.43 C 1402.89 1132.84 1384.11 1106.44 1378.24 1099.46 C 1379.86 1098.99 1381.98 1099.06 1383.69 1098.92 C 1389.36 1097.69 1395.26 1097.29 1401.04 1096.87 C 1404.85 1095.89 1409.27 1095.86 1413.21 1095.51 z"/>
<path transform="translate(0,0)" fill="rgb(58,157,206)" d="M 1413.21 1095.51 C 1416.99 1094.15 1422.39 1094.06 1426.44 1093.5 C 1432.87 1106.79 1455.31 1119.52 1451.52 1135.91 L 1446.77 1135.95 C 1443.79 1136.28 1440.57 1136.91 1437.59 1136.88 C 1435.34 1131.84 1414.61 1100.78 1410.95 1097.74 C 1409.36 1096.42 1406.12 1097.11 1404.09 1097.21 L 1401.04 1096.87 C 1404.85 1095.89 1409.27 1095.86 1413.21 1095.51 z"/>
<path transform="translate(0,0)" fill="rgb(42,141,188)" d="M 1378.24 1099.46 C 1379.86 1098.99 1381.98 1099.06 1383.69 1098.92 C 1387.44 1098.96 1391.22 1098.54 1394.07 1101.36 C 1395.99 1103.26 1397.6 1105.43 1399.5 1107.34 C 1403.96 1117.63 1414.87 1128.08 1415.77 1139.18 L 1404.83 1140.43 C 1402.89 1132.84 1384.11 1106.44 1378.24 1099.46 z"/>
<path transform="translate(0,0)" fill="rgb(58,157,206)" d="M 1399.5 1107.34 L 1406.97 1108.01 C 1412.56 1115.48 1417.97 1123.63 1424.27 1130.49 C 1423.05 1133.22 1421.81 1135.89 1420.97 1138.77 L 1415.77 1139.18 C 1414.87 1128.08 1403.96 1117.63 1399.5 1107.34 z"/>
<path transform="translate(0,0)" fill="rgb(235,216,209)" d="M 1505.53 1085.48 C 1512.66 1084.35 1515.87 1085.6 1522.22 1088.91 C 1536.19 1100.34 1550.7 1110.91 1564.28 1122.82 C 1556.22 1124.41 1546.77 1127.14 1538.56 1126.89 C 1532.01 1127.41 1525.31 1127.71 1518.89 1129.17 L 1514.88 1128.96 C 1513.55 1123.79 1510.54 1118.48 1508.42 1113.56 C 1504.66 1104.82 1502.28 1096.75 1500.53 1087.43 L 1490.47 1086.85 C 1495.28 1085.84 1500.6 1085.84 1505.53 1085.48 z"/>
<path transform="translate(0,0)" fill="rgb(249,238,230)" d="M 1522.22 1088.91 C 1536.19 1100.34 1550.7 1110.91 1564.28 1122.82 C 1556.22 1124.41 1546.77 1127.14 1538.56 1126.89 C 1533.61 1117.93 1523.54 1098.48 1522.22 1088.91 z"/>
<path transform="translate(0,0)" fill="rgb(172,211,221)" d="M 1434.3 1092.83 L 1447.79 1091.15 C 1459.4 1103.64 1476.99 1115.2 1490.72 1125.68 L 1495.73 1130.82 C 1484.96 1132.02 1474.15 1133.48 1463.36 1134.37 C 1459.46 1134.86 1455.35 1135.14 1451.52 1135.91 C 1455.31 1119.52 1432.87 1106.79 1426.44 1093.5 L 1434.3 1092.83 z"/>
<path transform="translate(0,0)" fill="rgb(144,189,212)" d="M 1426.44 1093.5 L 1434.3 1092.83 C 1439.41 1097.71 1445.81 1100.65 1451.08 1105.25 C 1454.4 1115.14 1461.06 1124.38 1463.36 1134.37 C 1459.46 1134.86 1455.35 1135.14 1451.52 1135.91 C 1455.31 1119.52 1432.87 1106.79 1426.44 1093.5 z"/>
<path transform="translate(0,0)" fill="rgb(236,194,187)" d="M 1479.77 1087.9 C 1483.25 1087.09 1486.9 1087.06 1490.47 1086.85 L 1500.53 1087.43 C 1502.28 1096.75 1504.66 1104.82 1508.42 1113.56 C 1510.54 1118.48 1513.55 1123.79 1514.88 1128.96 C 1511.85 1129.34 1508.52 1130.07 1505.48 1129.87 C 1504.82 1128.98 1504.16 1127.98 1503.41 1127.17 C 1497.25 1120.48 1495.58 1111.83 1489.18 1104.95 C 1489.25 1100.64 1490.67 1093.12 1488.54 1089.56 C 1485.51 1087.65 1483.23 1088.01 1479.77 1087.9 z"/>
<path transform="translate(0,0)" fill="rgb(175,200,127)" d="M 1441.22 955.926 C 1459.56 968.684 1476.65 984.793 1492.73 1000.25 C 1502.65 1008.11 1511.32 1018.25 1522.17 1024.76 C 1506.4 1025.46 1471.55 1028.57 1457.16 1025.35 C 1438.15 1008.06 1418.65 991.291 1399.53 974.113 C 1407.14 968.568 1414.26 968.674 1422.23 964.686 C 1427.88 962.801 1433.77 965.204 1439.39 963.376 C 1441.71 960.89 1441.15 959.15 1441.22 955.926 z"/>
<path transform="translate(0,0)" fill="rgb(171,198,169)" d="M 1492.73 1000.25 C 1502.65 1008.11 1511.32 1018.25 1522.17 1024.76 C 1506.4 1025.46 1471.55 1028.57 1457.16 1025.35 C 1467.61 1024.07 1480.01 1027 1489.92 1023.8 C 1492.57 1022.94 1494.6 1021.42 1495.75 1018.84 C 1498.45 1012.74 1494.74 1006.05 1492.73 1000.25 z"/>
<path transform="translate(0,0)" fill="rgb(234,166,163)" d="M 1597.41 916.367 C 1599.62 920.424 1601.81 924.443 1603.68 928.671 L 1604.35 930.434 C 1606.24 933.807 1608.05 937.135 1609.62 940.675 C 1616.01 952.759 1622.24 964.928 1628.31 977.18 C 1634.9 987.905 1640.86 1000.62 1646.01 1012.11 C 1646.52 1013.24 1647.33 1015.08 1646.95 1016.28 L 1644.85 1013.54 C 1640.9 1014.61 1637.52 1017.08 1633.45 1018.21 C 1627.47 1019.86 1621.17 1020.09 1615.11 1021.42 L 1614.4 1021.58 C 1612.51 1019.6 1612.48 1018.49 1611.85 1015.87 L 1612.8 1015.6 C 1614.87 1017.12 1616.25 1017.87 1618.78 1018.38 C 1624.92 1014.41 1633.79 1017.73 1640.54 1013.88 L 1640.61 1012.68 L 1637.71 1009.5 C 1626.33 1007.21 1616.29 1008.07 1604.82 1007.61 C 1603.63 1010.13 1611.48 1020.23 1612.02 1023.84 C 1606.56 1019.7 1585.47 974.807 1581.52 966.691 C 1578.13 960.79 1575.05 954.945 1572.25 948.733 L 1568.27 941.142 L 1564.28 932.728 L 1561.54 928.062 C 1573.69 922.627 1583.16 924.132 1592.45 920.506 C 1594.39 919.747 1596.04 917.866 1597.41 916.367 z"/>
<path transform="translate(0,0)" fill="rgb(236,194,187)" d="M 1581.52 966.691 C 1590.39 970.413 1594.54 979.692 1597.99 988.135 C 1598.6 989.655 1599.19 991.189 1599.74 992.735 C 1606.73 991.876 1620.58 991.879 1624.93 985.892 C 1626.68 983.485 1627.58 980.044 1628.31 977.18 C 1634.9 987.905 1640.86 1000.62 1646.01 1012.11 C 1646.52 1013.24 1647.33 1015.08 1646.95 1016.28 L 1644.85 1013.54 C 1640.9 1014.61 1637.52 1017.08 1633.45 1018.21 C 1627.47 1019.86 1621.17 1020.09 1615.11 1021.42 L 1614.4 1021.58 C 1612.51 1019.6 1612.48 1018.49 1611.85 1015.87 L 1612.8 1015.6 C 1614.87 1017.12 1616.25 1017.87 1618.78 1018.38 C 1624.92 1014.41 1633.79 1017.73 1640.54 1013.88 L 1640.61 1012.68 L 1637.71 1009.5 C 1626.33 1007.21 1616.29 1008.07 1604.82 1007.61 C 1603.63 1010.13 1611.48 1020.23 1612.02 1023.84 C 1606.56 1019.7 1585.47 974.807 1581.52 966.691 z"/>
<path transform="translate(0,0)" fill="rgb(228,86,82)" d="M 1597.41 916.367 C 1599.62 920.424 1601.81 924.443 1603.68 928.671 L 1604.35 930.434 C 1593.85 941.202 1590.05 940.003 1575.28 942.313 C 1572.07 940.621 1571.84 940.524 1568.27 941.142 L 1564.28 932.728 L 1561.54 928.062 C 1573.69 922.627 1583.16 924.132 1592.45 920.506 C 1594.39 919.747 1596.04 917.866 1597.41 916.367 z"/>
<path transform="translate(0,0)" fill="rgb(163,130,97)" d="M 953.021 274.223 C 959.282 273.272 965.25 273.884 971.196 276.122 C 991.126 283.624 975.591 308.146 980.27 317.186 C 981.154 318.893 996.535 318.324 1000.16 319.43 C 1005.42 321.037 1008.76 324.032 1011.26 328.858 C 1014.27 334.68 1014.79 341.262 1012.52 347.455 C 1009.62 355.354 1004.2 360.086 996.788 363.617 C 990.947 364.488 985.084 364.236 979.504 362.152 C 959.344 354.622 973.388 334.271 968.022 322.832 C 963.877 319.451 953.853 320.797 948.365 318.862 C 943.434 317.123 938.735 314.231 936.443 309.337 C 933.803 303.7 934.077 295.337 936.328 289.553 C 939.354 281.775 945.817 277.576 953.021 274.223 z"/>
<path transform="translate(0,0)" fill="rgb(228,86,82)" d="M 1550.84 824.691 C 1566.1 852.392 1579.65 881.596 1593.75 909.947 C 1595 912.06 1596.33 914.156 1597.41 916.367 C 1596.04 917.866 1594.39 919.747 1592.45 920.506 C 1583.16 924.132 1573.69 922.627 1561.54 928.062 L 1555.6 915.688 C 1540.88 888.879 1526.23 859.753 1514.35 831.535 C 1518.32 834.975 1520.28 839.679 1523.28 843.921 C 1525.55 845.038 1526.62 845.473 1529.15 844.817 C 1537.68 842.601 1546.59 831.873 1550.84 824.691 z"/>
<path transform="translate(0,0)" fill="rgb(228,102,101)" d="M 1593.75 909.947 C 1595 912.06 1596.33 914.156 1597.41 916.367 C 1596.04 917.866 1594.39 919.747 1592.45 920.506 C 1583.16 924.132 1573.69 922.627 1561.54 928.062 L 1555.6 915.688 C 1556.68 915.912 1557.61 916.141 1558.56 916.709 C 1559.35 917.175 1560.14 917.657 1560.92 918.136 C 1564.34 920.242 1568.27 919.087 1571.99 918.357 C 1577.51 917.273 1590.64 914.564 1593.75 909.947 z"/>
<path transform="translate(0,0)" fill="rgb(233,123,44)" d="M 464.284 849.61 C 481.067 845.429 498.065 855.63 502.271 872.407 C 506.476 889.184 496.3 906.197 479.53 910.427 C 462.725 914.666 445.668 904.465 441.454 887.653 C 437.239 870.841 447.466 853.799 464.284 849.61 z"/>
<path transform="translate(0,0)" fill="rgb(74,148,178)" d="M 253.941 1244.63 C 270.391 1240.56 287.052 1250.5 291.272 1266.92 C 295.493 1283.33 285.695 1300.08 269.32 1304.44 C 252.74 1308.86 235.737 1298.91 231.463 1282.29 C 227.19 1265.68 237.286 1248.76 253.941 1244.63 z"/>
<path transform="translate(0,0)" fill="rgb(161,193,76)" d="M 648.255 582.448 C 664.38 578.865 680.402 588.868 684.263 604.929 C 688.124 620.99 678.4 637.182 662.408 641.321 C 651.814 644.062 640.566 640.875 632.985 632.983 C 625.404 625.091 622.671 613.723 625.837 603.248 C 629.002 592.773 637.572 584.821 648.255 582.448 z"/>
<path transform="translate(0,0)" fill="rgb(172,211,221)" d="M 135.677 1152.67 C 152.294 1150.37 167.598 1162.06 169.758 1178.69 C 171.919 1195.33 160.108 1210.54 143.456 1212.56 C 126.993 1214.57 111.995 1202.92 109.859 1186.47 C 107.723 1170.03 119.249 1154.93 135.677 1152.67 z"/>
<path transform="translate(0,0)" fill="rgb(6,108,162)" d="M 217.039 1067.66 C 227.566 1065.12 238.648 1068.43 246.054 1076.33 C 253.46 1084.23 256.047 1095.5 252.828 1105.85 C 249.61 1116.19 241.081 1124 230.499 1126.3 C 214.393 1129.81 198.466 1119.7 194.779 1103.63 C 191.092 1087.57 201.017 1071.53 217.039 1067.66 z"/>
<path transform="translate(0,0)" fill="rgb(31,130,75)" d="M 645.702 405.287 C 656.226 402.55 667.408 405.719 674.933 413.57 C 682.457 421.422 685.147 432.728 681.966 443.127 C 678.784 453.526 670.228 461.391 659.598 463.688 C 643.629 467.139 627.832 457.187 624.05 441.293 C 620.268 425.399 629.89 409.398 645.702 405.287 z"/>
<path transform="translate(0,0)" fill="rgb(225,42,42)" d="M 1427.19 110.24 C 1443.34 109.584 1457.03 122.007 1457.94 138.146 C 1458.85 154.285 1446.65 168.171 1430.53 169.338 C 1419.87 170.11 1409.62 165.076 1403.72 156.168 C 1397.81 147.26 1397.17 135.861 1402.03 126.345 C 1406.9 116.829 1416.51 110.673 1427.19 110.24 z"/>
<path transform="translate(0,0)" fill="rgb(247,207,49)" d="M 1285.48 147.111 C 1301.22 143.245 1317.11 152.854 1321.01 168.587 C 1324.9 184.32 1315.32 200.233 1299.59 204.152 C 1283.83 208.079 1267.87 198.469 1263.97 182.699 C 1260.06 166.93 1269.7 150.987 1285.48 147.111 z"/>
<path transform="translate(0,0)" fill="rgb(163,130,97)" d="M 913.369 211.19 C 928.724 206.885 944.676 215.78 949.085 231.106 C 953.494 246.432 944.707 262.444 929.412 266.956 C 913.968 271.513 897.769 262.623 893.317 247.149 C 888.866 231.675 897.865 215.536 913.369 211.19 z"/>
<path transform="translate(0,0)" fill="rgb(247,207,49)" d="M 1302.2 221.342 C 1305.97 221.399 1309.3 221.277 1312.76 223.017 C 1314.41 224.719 1315.12 226.285 1315.84 228.525 C 1318.83 237.892 1330.1 295.947 1326.14 302.502 C 1323.13 307.478 1317.19 308.762 1311.91 309.805 C 1308.65 309.003 1305.35 308.171 1302.52 306.289 C 1300.75 305.116 1299.87 303.588 1299.18 301.616 C 1296.07 292.782 1295.4 282.757 1293.44 273.596 C 1291.7 265.502 1288.96 257.651 1287.24 249.536 C 1286.14 244.334 1283.19 231.433 1286.48 227.028 C 1290.17 222.092 1296.59 221.9 1302.2 221.342 z"/>
<path transform="translate(0,0)" fill="rgb(31,130,75)" d="M 709.421 451.607 C 723.837 449.64 737.152 459.641 739.279 474.035 C 741.406 488.428 731.554 501.853 717.185 504.14 C 707.747 505.643 698.229 501.957 692.264 494.49 C 686.299 487.023 684.807 476.927 688.357 468.053 C 691.907 459.18 699.952 452.899 709.421 451.607 z"/>
<path transform="translate(0,0)" fill="url(#Gradient2)" d="M 1513.93 1037.91 C 1522.86 1036.07 1532.93 1036.81 1542.03 1036.83 C 1555.43 1046.63 1567.37 1058.34 1580.78 1068.11 C 1569.23 1068.95 1557.68 1069.59 1546.11 1070.01 C 1536.44 1069.97 1526.47 1071.33 1516.81 1072.13 C 1502.9 1062.16 1490.21 1049.78 1476.73 1039.11 C 1489.13 1038.3 1501.51 1038.08 1513.93 1037.91 z"/>
<path transform="translate(0,0)" fill="rgb(249,238,230)" d="M 1513.93 1037.91 C 1522.86 1036.07 1532.93 1036.81 1542.03 1036.83 C 1555.43 1046.63 1567.37 1058.34 1580.78 1068.11 C 1569.23 1068.95 1557.68 1069.59 1546.11 1070.01 C 1547.26 1067.81 1547.42 1066.34 1547.46 1063.88 L 1546.07 1062.69 L 1544.22 1063.99 L 1543.34 1063.48 C 1543.95 1042.86 1536.55 1049 1534.84 1040.67 L 1538.66 1039.46 L 1538.59 1038.51 C 1531.54 1036.62 1521.37 1038.14 1513.93 1037.91 z"/>
<path transform="translate(0,0)" fill="rgb(161,193,76)" d="M 718.103 622.746 C 732.452 620.802 745.676 630.812 747.7 645.15 C 749.724 659.487 739.787 672.767 725.461 674.87 C 711.022 676.99 697.615 666.958 695.575 652.507 C 693.535 638.057 703.642 624.706 718.103 622.746 z"/>
<path transform="translate(0,0)" fill="url(#Gradient1)" d="M 1408.27 831.169 C 1418.86 834.249 1429.88 835.94 1440.72 837.915 C 1444.3 838.421 1447.34 839.141 1450.81 837.776 C 1452.71 840.27 1454.28 842.689 1455.71 845.479 C 1464.48 858.408 1472.24 872.283 1480.19 885.736 C 1485.05 893.958 1490.65 902.193 1494.86 910.734 L 1493.19 912.355 C 1490.39 912.157 1487.68 911.762 1484.91 911.275 C 1477.59 906.26 1470.73 899.313 1464.06 893.416 C 1451.51 882.33 1438.2 871.465 1427.43 858.59 C 1420.35 850.126 1414.4 840.345 1408.27 831.169 z"/>
<path transform="translate(0,0)" fill="rgb(198,178,165)" d="M 1450.81 837.776 C 1452.71 840.27 1454.28 842.689 1455.71 845.479 C 1451.32 845.298 1446.61 845.563 1442.59 843.558 C 1440.46 841.192 1440.62 841.123 1440.72 837.915 C 1444.3 838.421 1447.34 839.141 1450.81 837.776 z"/>
<path transform="translate(0,0)" fill="rgb(161,193,76)" d="M 778.156 657.377 C 787.127 655.538 796.393 658.682 802.393 665.6 C 808.393 672.518 810.196 682.134 807.108 690.755 C 804.02 699.377 796.521 705.662 787.493 707.197 C 773.857 709.515 760.88 700.473 758.332 686.877 C 755.783 673.282 764.606 660.154 778.156 657.377 z"/>
<path transform="translate(0,0)" fill="rgb(247,223,117)" d="M 1522.66 874.127 C 1529.34 883.547 1545.49 915.81 1549.7 927.236 C 1543.59 931.277 1522.74 926.552 1515 925.35 C 1504.21 908.394 1493.4 890.996 1483.35 873.598 C 1491.34 876.736 1501.13 877.765 1509.66 877.535 C 1513.96 877.419 1519.52 877.417 1522.66 874.127 z"/>
<path transform="translate(0,0)" fill="rgb(171,198,169)" d="M 1485.5 928.906 L 1490.19 933.687 C 1504.63 946.603 1519.56 959.269 1533.4 972.819 C 1521.94 973.352 1488.12 976.454 1479.29 973.374 L 1466.69 961.074 C 1466.9 960.96 1467.11 960.851 1467.32 960.732 C 1473.82 957.025 1473.34 947.178 1475.25 940.591 C 1476.88 934.966 1480.46 931.639 1485.5 928.906 z"/>
<path transform="translate(0,0)" fill="rgb(232,239,217)" d="M 1558.79 945.23 C 1563.56 955.405 1568.54 965.298 1574.23 974.997 C 1562.86 974.736 1551.04 975.486 1542.48 966.593 C 1539.08 963.059 1536.16 958.817 1533.22 954.887 C 1535.34 956.686 1537.33 958.479 1540.13 959.083 C 1544.25 959.973 1548.55 959.682 1552.13 957.289 C 1555.63 954.945 1557.87 949.194 1558.79 945.23 z"/>
<path transform="translate(0,0)" fill="rgb(6,108,162)" d="M 272.168 1085.06 C 288.026 1085.19 303.885 1085.23 319.744 1085.16 C 319.9 1092.73 320.214 1100.32 319.596 1107.87 C 307.764 1107.74 294.569 1109.59 282.928 1108.07 C 278.809 1107.53 274.701 1105.91 272.293 1102.36 C 268.806 1097.22 270.933 1090.58 272.168 1085.06 z"/>
<path transform="translate(0,0)" fill="rgb(31,130,75)" d="M 755.169 497.019 C 760.173 495.056 765.848 495.954 770.001 499.367 C 774.153 502.78 776.134 508.173 775.178 513.463 C 774.221 518.752 770.477 523.11 765.392 524.852 C 757.764 527.466 749.445 523.506 746.665 515.937 C 743.885 508.367 747.663 499.964 755.169 497.019 z"/>
<path transform="translate(0,0)" fill="rgb(3,62,108)" d="M 1259.61 946.37 C 1268.53 953.139 1291.11 969.628 1296.59 977.979 C 1284.14 978.379 1271.62 978.255 1259.15 978.375 C 1259.36 967.708 1259.51 957.039 1259.61 946.37 z"/>
<path transform="translate(0,0)" fill="rgb(225,42,42)" d="M 1430.21 186.123 C 1432.96 186.185 1435.97 186.122 1438.55 187.169 C 1442.01 188.573 1444.84 191.501 1446.28 194.926 C 1447.52 197.946 1447.49 201.343 1446.17 204.334 C 1444.26 208.768 1440.58 210.62 1436.26 212.136 C 1433.08 212.023 1429.26 212.149 1426.26 211.055 C 1422.73 209.769 1420.06 206.662 1418.72 203.217 C 1417.55 200.209 1417.93 196.865 1419.37 194.013 C 1421.76 189.277 1425.54 187.789 1430.21 186.123 z"/>
<path transform="translate(0,0)" fill="rgb(6,108,162)" d="M 341.986 1086.81 L 365.447 1086.76 C 365.118 1093.72 365.414 1100.76 365.499 1107.73 L 341.933 1107.86 L 341.986 1086.81 z"/>
<path transform="translate(0,0)" fill="rgb(225,42,42)" d="M 1436.49 230.061 C 1438.81 229.981 1441.36 229.923 1443.51 230.925 C 1446.63 232.372 1449.32 235.37 1450.15 238.733 C 1450.85 241.543 1450.22 244.737 1448.57 247.103 C 1446.31 250.332 1442.73 250.977 1439.15 251.786 C 1438.35 251.702 1437.57 251.595 1436.77 251.49 C 1434.65 251.212 1432.42 251.019 1430.46 250.109 C 1427.66 248.809 1425.18 246.43 1424.17 243.472 C 1423.42 241.277 1423.64 239.035 1424.74 236.998 C 1427.11 232.608 1432.06 231.339 1436.49 230.061 z"/>
<path transform="translate(0,0)" fill="rgb(31,130,75)" d="M 794.051 522.919 C 795.555 522.963 796.967 523.107 798.425 523.504 C 801.934 524.459 805.13 527.014 806.878 530.205 C 808.559 533.272 808.727 537.173 807.492 540.433 C 805.895 544.647 802.519 546.332 798.763 548.229 C 797.167 548.02 795.478 547.819 793.949 547.303 C 790.886 546.269 787.774 543.325 786.312 540.482 C 784.777 537.512 784.53 534.043 785.63 530.886 C 787.087 526.629 790.32 524.872 794.051 522.919 z"/>
<path transform="translate(0,0)" fill="rgb(3,62,108)" d="M 1360.9 780.156 C 1371.51 794.108 1380.49 809.944 1389.99 824.687 C 1387.45 823.172 1385.2 821.181 1382.91 819.324 C 1371.41 808.98 1360.11 798.409 1349.02 787.619 C 1353.24 785.566 1357.03 782.791 1360.9 780.156 z"/>
<path transform="translate(0,0)" fill="rgb(232,239,217)" d="M 1494.86 910.734 C 1499.06 916.577 1502.07 923.755 1505.32 930.192 C 1498.23 924.165 1491.24 918.107 1484.91 911.275 C 1487.68 911.762 1490.39 912.157 1493.19 912.355 L 1494.86 910.734 z"/>
</svg>
