<?xml version="1.0" standalone="no"?>
<!DOCTYPE svg PUBLIC "-//W3C//DTD SVG 20010904//EN"
 "http://www.w3.org/TR/2001/REC-SVG-20010904/DTD/svg10.dtd">
<svg version="1.0" xmlns="http://www.w3.org/2000/svg"
 width="512.000000pt" height="512.000000pt" viewBox="0 0 512.000000 512.000000"
 preserveAspectRatio="xMidYMid meet">
<metadata>
Created by potrace 1.16, written by Peter Selinger 2001-2019
</metadata>
<g transform="translate(0.000000,512.000000) scale(0.100000,-0.100000)"
fill="#000000" stroke="none">
<path d="M2694 4569 c-4 -7 -7 -32 -5 -55 3 -57 -19 -68 -108 -61 -95 8 -326
-9 -441 -33 -128 -26 -249 -68 -385 -135 -168 -82 -396 -240 -415 -288 l-9
-22 0 22 c-2 42 216 204 406 301 220 112 422 161 701 169 l192 6 0 42 c0 36
-4 44 -22 49 -64 17 -325 -2 -477 -35 -458 -100 -920 -422 -1193 -834 -248
-374 -372 -852 -329 -1274 6 -65 5 -77 -11 -93 -10 -10 -18 -28 -18 -39 0 -49
52 -272 86 -370 70 -203 213 -472 304 -570 33 -35 29 -28 -20 39 -62 87 -67
100 -50 133 20 37 44 21 112 -74 36 -50 111 -141 166 -202 96 -107 122 -130
282 -265 67 -56 75 -66 75 -98 0 -33 6 -39 70 -84 98 -67 292 -161 417 -202
167 -55 299 -77 499 -83 196 -6 225 -3 240 31 9 19 25 25 105 39 213 38 516
166 689 291 183 133 420 365 413 404 -2 9 -18 23 -36 31 -24 11 -32 21 -32 40
-1 46 -52 91 -104 91 -34 0 -92 -53 -100 -91 -8 -42 20 -99 56 -113 15 -6 28
-14 28 -18 0 -11 -162 -156 -245 -218 -42 -31 -111 -77 -153 -101 -42 -24 -84
-50 -92 -58 -40 -39 -259 -122 -412 -157 -115 -26 -158 -30 -158 -14 0 6 9 10
20 10 70 0 284 60 418 117 121 52 94 51 -36 -1 -102 -41 -258 -85 -359 -101
-35 -6 -43 -4 -43 9 0 9 -8 16 -20 16 -16 0 -20 -7 -20 -31 l0 -32 -172 6
c-189 6 -263 19 -428 73 -280 92 -549 270 -793 523 -54 55 -105 101 -113 101
-36 0 -4 -45 118 -165 192 -188 341 -296 553 -401 234 -114 411 -160 663 -171
142 -6 154 -5 168 13 14 18 14 18 12 -6 l-3 -25 -155 1 c-465 3 -887 204
-1293 618 -130 132 -157 164 -152 183 4 16 -11 44 -55 105 -182 253 -290 517
-336 819 -19 123 -21 394 -4 519 21 162 92 392 157 512 21 38 30 46 52 45 20
-2 26 2 24 17 -1 18 69 172 87 190 5 5 6 -9 3 -32 -16 -117 87 -199 187 -147
41 21 66 91 50 139 -24 75 -114 110 -175 70 -23 -15 -25 -15 -31 0 -8 22 23
69 71 105 128 97 220 179 223 198 4 26 116 120 239 200 178 117 352 194 536
238 137 33 156 33 163 -4 8 -38 18 -41 85 -29 72 14 377 3 459 -15 59 -14 81
-14 69 -3 -25 25 -477 49 -553 30 -23 -5 -26 -3 -26 20 0 14 5 26 10 26 6 0
10 -3 10 -7 0 -5 82 -8 183 -9 132 0 210 -5 282 -19 134 -24 139 -24 143 3 2
12 8 22 13 22 29 0 240 -80 330 -125 165 -83 249 -141 411 -283 66 -58 84 -80
76 -89 -19 -23 -38 -14 -109 49 -72 65 -238 187 -253 188 -5 0 10 -14 33 -31
l43 -30 -46 -36 c-25 -20 -46 -38 -46 -41 0 -4 12 4 63 45 16 13 33 23 37 23
11 0 176 -137 204 -168 21 -24 60 -29 75 -9 6 6 26 31 45 53 20 23 36 50 36
61 0 33 -197 201 -349 298 -184 117 -381 198 -582 239 -181 36 -215 40 -225
25z m350 -159 c80 -23 209 -71 204 -76 -2 -1 -51 12 -108 31 -58 18 -127 40
-155 48 -27 8 -41 15 -30 16 11 1 51 -8 89 -19z m315 -75 c85 -43 254 -161
317 -221 34 -33 43 -43 20 -24 -103 89 -190 149 -326 227 -81 47 -88 57 -11
18z m-2580 -2530 c0 -5 -8 6 -19 25 -11 19 -19 40 -19 45 0 6 8 -6 19 -25 11
-19 19 -39 19 -45z m2951 -756 c-122 -114 -379 -293 -396 -276 -3 2 23 21 58
40 92 52 194 125 299 217 51 44 95 80 98 80 3 -1 -23 -28 -59 -61z"/>
<path d="M2494 4286 c-58 -49 -20 -146 57 -146 39 0 79 42 79 82 0 37 -48 88
-84 88 -14 0 -37 -11 -52 -24z"/>
<path d="M2685 4175 c6 -3 54 -11 107 -20 54 -8 117 -22 140 -30 23 -8 45 -10
48 -6 11 18 68 8 149 -25 46 -19 85 -33 87 -31 9 8 -143 70 -183 75 -41 4 -58
24 -30 35 9 4 9 6 -1 6 -7 1 -17 -11 -22 -25 -8 -19 -15 -24 -28 -19 -26 11
-222 45 -251 44 -14 0 -21 -2 -16 -4z"/>
<path d="M2242 4155 c-40 -7 -103 -23 -141 -34 -84 -26 -244 -92 -237 -98 3
-3 49 13 103 35 111 46 214 75 323 91 41 6 86 13 100 15 14 2 3 3 -25 4 -27 0
-83 -6 -123 -13z"/>
<path d="M3140 4163 c0 -5 16 -17 35 -26 19 -9 64 -35 101 -57 37 -22 69 -38
71 -36 6 5 -52 43 -143 93 -35 19 -64 31 -64 26z"/>
<path d="M2350 4079 c-75 -13 -130 -26 -137 -32 -5 -6 13 -89 44 -195 28 -98
24 -46 -5 71 l-29 115 21 6 c75 18 246 28 374 22 83 -4 142 -3 142 2 0 5 -17
12 -37 16 -52 8 -318 5 -373 -5z"/>
<path d="M2820 4014 c-19 -22 -1 -68 28 -72 46 -7 69 40 36 72 -20 20 -48 20
-64 0z"/>
<path d="M1685 3942 c-94 -63 -117 -90 -87 -100 7 -2 10 2 6 11 -3 9 13 27 46
52 42 31 53 35 65 25 13 -11 14 -10 9 3 -4 12 5 23 30 38 20 11 36 25 36 30 0
12 6 16 -105 -59z"/>
<path d="M3922 3978 c-21 -21 -14 -37 51 -116 98 -121 149 -197 227 -337 75
-137 90 -159 98 -150 3 3 -2 13 -10 22 -29 34 -30 59 -3 91 14 16 25 35 25 42
0 21 -161 248 -252 355 -87 102 -111 118 -136 93z"/>
<path d="M2355 3973 c-16 -3 -34 -9 -40 -14 -7 -7 0 -8 20 -2 17 4 113 8 213
8 101 0 173 3 160 6 -25 8 -305 9 -353 2z"/>
<path d="M3317 3944 c-8 -8 1 -24 14 -24 5 0 9 7 9 15 0 15 -12 20 -23 9z"/>
<path d="M2084 3891 c-92 -36 -213 -101 -292 -158 -102 -73 -63 -61 54 16 59
39 113 71 120 71 7 0 18 -8 23 -19 9 -16 0 -25 -73 -69 -87 -53 -150 -101
-143 -109 3 -2 33 16 68 40 80 55 109 71 234 122 61 25 101 47 103 57 2 8 -3
29 -10 46 l-13 31 -71 -28z"/>
<path d="M3006 3901 c5 -5 42 -23 82 -40 40 -18 88 -41 108 -53 19 -11 37 -18
40 -15 8 8 -71 52 -155 87 -78 32 -91 35 -75 21z"/>
<path d="M2786 3874 c-4 -15 -6 -27 -4 -28 12 -8 262 -76 265 -72 3 2 -34 17
-82 32 -73 24 -85 31 -83 49 4 32 -10 45 -52 45 -33 0 -39 -4 -44 -26z"/>
<path d="M3590 3875 c0 -8 75 -74 85 -75 5 0 -9 18 -30 40 -35 36 -55 49 -55
35z"/>
<path d="M2490 3820 c0 -37 -2 -40 -37 -49 -21 -6 -47 -11 -58 -11 -33 0 -208
-50 -232 -66 -28 -18 -30 -44 -4 -44 10 0 35 7 54 15 20 8 39 15 41 15 3 0 -8
-21 -24 -47 -17 -26 -30 -50 -30 -54 0 -6 75 -59 85 -59 3 0 5 6 5 14 0 23 38
63 66 70 19 5 32 2 43 -9 14 -14 13 -15 -15 -9 -59 11 -97 -56 -72 -128 16
-45 57 -60 139 -52 l70 7 -3 -44 c-3 -40 -6 -44 -32 -47 -19 -3 -36 4 -55 21
-14 14 -45 34 -69 46 -39 20 -59 46 -75 101 -3 9 -27 28 -54 43 l-50 26 -72
-34 c-78 -38 -157 -95 -252 -182 -32 -31 -57 -49 -53 -40 12 32 -14 25 -40
-11 -28 -40 -18 -56 17 -26 12 11 5 0 -14 -22 -48 -54 -103 -154 -139 -251
-16 -43 -29 -72 -30 -65 0 25 61 170 100 235 22 36 40 70 40 75 0 13 -45 42
-64 42 -20 0 -98 -134 -135 -230 -46 -121 -46 -116 -11 -128 23 -9 30 -17 30
-38 0 -18 -4 -25 -14 -21 -17 7 -23 -7 -32 -75 -8 -70 -25 -94 -69 -102 -32
-6 -37 -10 -32 -31 2 -14 0 -22 -5 -19 -6 4 -8 -14 -7 -42 l3 -49 -103 -3
-103 -3 7 83 c4 46 15 126 26 180 23 117 23 108 -1 108 -14 0 -22 -11 -31 -42
-23 -85 -38 -195 -39 -275 0 -81 -5 -94 -27 -72 -6 6 -13 7 -15 2 -7 -12 3
-113 11 -113 3 0 5 20 3 45 -3 36 -1 45 12 45 14 0 16 -15 16 -94 0 -89 20
-208 41 -247 9 -17 44 -16 55 2 3 5 -4 47 -16 94 -12 47 -24 125 -28 175 l-8
90 98 0 c93 0 98 -1 102 -22 3 -13 10 -52 16 -88 21 -115 95 -320 116 -320 2
0 22 9 44 20 44 22 60 26 43 9 -15 -15 -4 -44 49 -122 58 -86 120 -157 185
-213 l56 -48 18 23 c11 13 19 26 19 30 0 3 -39 47 -86 96 -47 50 -95 104 -106
120 l-20 30 22 -25 c54 -62 102 -110 109 -110 5 0 15 7 22 16 11 14 8 21 -24
50 -41 38 -127 141 -127 152 0 4 10 -6 22 -23 30 -40 139 -155 148 -155 4 0
18 8 31 19 l23 18 -50 56 c-88 100 -146 213 -184 364 -11 42 -20 94 -20 115 0
38 1 39 32 36 30 -3 32 -5 55 -93 58 -225 193 -399 396 -510 66 -36 68 -38 61
-69 -9 -44 -22 -66 -40 -66 -30 0 -160 76 -215 127 l-25 23 -42 -32 c-23 -18
-42 -38 -42 -44 0 -7 19 -28 42 -48 39 -32 44 -33 60 -19 15 14 22 12 76 -21
59 -36 126 -68 170 -81 21 -6 22 -4 22 50 0 34 6 68 16 84 25 42 81 75 138 81
47 5 51 7 54 33 5 42 22 32 22 -13 l0 -40 -56 0 c-96 0 -154 -56 -154 -147 0
-49 9 -61 51 -74 66 -20 297 -23 387 -5 74 15 170 42 213 60 11 5 19 -1 27
-19 6 -14 19 -25 27 -25 24 0 104 43 173 94 69 51 70 62 11 86 -26 11 -32 10
-52 -7 -38 -35 -101 -73 -119 -73 -10 0 -26 16 -37 38 -33 66 -39 67 -124 22
-41 -22 -87 -40 -101 -40 -19 0 -26 -5 -26 -19 0 -28 -18 -31 -165 -31 -104 0
-135 3 -145 15 -21 25 -1 36 63 33 l62 -3 3 93 3 92 -31 0 -30 0 -1 63 c-1 34
-2 69 -3 77 -2 8 -3 25 -4 36 -2 17 -11 23 -39 29 -21 3 -57 15 -80 25 -32 14
-41 23 -36 35 5 15 3 15 -15 4 -21 -13 -26 -11 -119 57 -21 15 -24 14 -55 -7
-50 -34 -88 -71 -88 -86 0 -23 71 -92 146 -142 76 -51 160 -88 228 -100 22 -3
41 -12 44 -19 10 -30 -165 21 -254 74 -66 39 -158 124 -180 166 -13 26 -12 28
24 62 20 20 40 36 45 36 13 0 7 25 -13 49 -22 26 -49 22 -57 -8 -6 -25 -29
-34 -53 -21 -33 18 -75 149 -86 273 l-6 78 35 -6 c19 -4 37 -3 41 3 3 5 -10
13 -29 16 -41 8 -41 10 -19 126 8 45 13 84 11 87 -7 6 -24 -50 -38 -125 -13
-71 -24 -78 -110 -70 -78 8 -84 18 -65 124 20 119 41 181 90 267 42 75 70 93
95 63 11 -13 9 -20 -7 -43 -93 -132 -154 -365 -103 -393 25 -13 74 -13 66 0
-3 6 -15 10 -25 10 -10 0 -21 4 -24 8 -8 13 31 157 56 210 12 26 21 58 20 72
-3 33 20 65 41 57 8 -3 25 -25 36 -49 11 -24 26 -50 32 -59 10 -13 8 -27 -9
-70 -29 -73 -44 -140 -40 -175 5 -48 22 -26 34 45 13 73 51 181 64 181 4 0 0
-18 -11 -40 -56 -116 -69 -330 -27 -455 24 -73 39 -86 72 -62 17 13 17 15 -2
78 -11 35 -23 94 -27 132 -6 60 -9 67 -28 68 -12 0 -17 3 -10 5 6 3 32 -2 58
-10 25 -9 68 -16 95 -16 48 0 50 1 50 28 0 40 14 56 43 48 23 -5 25 -11 29
-84 7 -128 66 -212 173 -249 l45 -15 0 -117 c0 -125 5 -141 48 -141 23 0 24
-2 19 -45 -5 -30 -2 -48 6 -57 14 -12 9 -81 -7 -106 -4 -7 -1 -12 8 -12 12 0
16 -11 16 -45 0 -50 1 -50 69 -34 27 6 48 6 53 1 35 -35 277 105 409 238 71
71 94 103 133 181 26 53 56 135 70 189 l23 95 36 3 37 3 0 79 c0 43 -3 81 -7
83 -17 10 -129 -16 -149 -35 -17 -15 -22 -35 -27 -96 -7 -90 -38 -198 -68
-236 -14 -17 -30 -26 -49 -26 -33 0 -54 27 -39 51 7 11 9 9 9 -7 0 -44 51 -40
75 5 19 38 45 182 45 251 0 60 -7 70 -51 70 -10 0 -19 4 -19 9 0 4 12 6 26 3
27 -5 27 -5 20 42 -4 26 -21 80 -37 119 -16 40 -29 73 -29 75 0 1 -12 2 -27 3
-25 0 -26 1 -8 9 14 5 25 3 36 -9 23 -23 59 -114 73 -185 14 -65 32 -81 64
-53 9 8 41 17 70 19 79 7 87 20 68 102 -17 73 -50 144 -75 163 -20 15 -77 17
-86 3 -4 -6 4 -39 16 -74 27 -76 22 -99 -23 -94 -28 3 -33 8 -49 56 -36 107
-89 170 -89 107 0 -16 -6 -25 -16 -25 -21 0 -15 -41 17 -125 20 -51 23 -78 23
-180 0 -101 -4 -129 -23 -179 -19 -47 -21 -60 -10 -67 7 -4 17 -5 23 -2 5 3 6
1 2 -5 -4 -7 -13 -12 -20 -12 -8 0 -19 -7 -26 -15 -17 -20 -43 -19 -71 4 l-23
18 27 89 c37 121 37 239 1 339 -13 39 -27 77 -30 86 -4 11 10 28 45 53 28 21
51 44 51 52 0 21 -15 17 -50 -12 l-31 -26 -62 58 c-79 74 -86 81 -62 64 11 -8
43 -36 71 -63 l52 -49 32 29 33 30 -29 37 c-71 91 -255 199 -361 211 l-62 7
-6 -44 c-4 -23 -5 -63 -3 -87 3 -48 -3 -43 95 -70 22 -6 52 -20 65 -32 22 -20
22 -20 1 -9 -20 9 -23 7 -29 -16 -6 -23 -1 -32 29 -57 43 -34 44 -38 17 -55
-18 -11 -26 -9 -65 18 -51 35 -61 37 -75 11 -14 -27 -13 -28 17 -36 15 -3 38
-15 52 -25 26 -18 26 -17 61 11 19 16 39 29 46 29 18 0 83 -101 99 -155 8 -26
15 -68 15 -92 0 -43 0 -43 35 -43 30 0 35 -3 34 -22 -1 -17 -2 -19 -6 -5 -3
10 -14 17 -28 17 -13 0 -30 2 -38 6 -10 4 -16 -6 -21 -36 -10 -64 -46 -131
-98 -181 l-47 -47 24 -22 24 -23 43 35 c24 20 51 46 61 59 45 62 49 66 33 34
-17 -35 -159 -177 -196 -196 -14 -7 -52 -20 -85 -29 -59 -15 -60 -16 -60 -50
0 -35 0 -35 40 -32 97 9 239 88 300 168 l28 37 -26 23 c-39 33 -20 37 22 4 20
-15 55 -38 79 -51 31 -15 40 -24 31 -30 -8 -4 -10 -11 -6 -15 8 -9 -22 -46
-33 -39 -4 2 -18 -8 -31 -23 l-24 -27 28 24 c15 14 27 20 27 13 0 -17 -73 -73
-89 -67 -11 5 -12 3 -1 -10 11 -13 9 -19 -8 -38 -43 -46 -203 -108 -272 -106
-14 0 7 7 45 16 68 14 169 57 209 88 15 11 17 18 9 26 -8 8 -27 1 -71 -26 -59
-36 -179 -75 -232 -75 -26 0 -26 1 -38 108 -7 59 -12 151 -12 204 0 92 1 97
23 101 12 2 -2 5 -31 6 -109 2 -200 85 -218 198 -13 85 44 184 131 225 33 16
35 18 11 13 -39 -8 -92 -48 -136 -100 l-35 -42 -37 18 c-37 19 -58 45 -58 72
0 29 63 106 120 146 55 39 60 45 60 80 0 58 17 73 86 75 l59 1 5 -60 5 -60 8
64 c4 35 7 119 7 185 0 159 -6 169 -94 160 -69 -7 -95 7 -61 33 30 21 235 17
330 -7 43 -11 80 -20 81 -20 2 0 9 19 16 41 11 37 10 43 -6 55 -37 27 -158 45
-274 42 -62 -2 -112 0 -112 5 0 11 219 8 285 -4 33 -6 72 -18 88 -26 26 -13
31 -13 46 1 16 15 22 15 61 1 135 -48 294 -164 406 -297 87 -104 125 -161 178
-266 31 -61 35 -76 25 -94 -9 -16 -8 -42 5 -112 9 -50 19 -122 23 -161 l8 -70
53 -3 54 -3 -7 83 c-4 46 -12 113 -19 148 -11 63 -12 65 -43 68 -29 3 -34 8
-44 45 -25 96 -124 265 -213 363 -25 29 -46 56 -46 60 0 5 29 -22 64 -61 l63
-69 27 17 c14 10 26 24 26 32 0 8 -29 44 -65 82 l-64 67 -29 -27 c-37 -36 -50
-22 -15 16 l28 29 -40 35 c-90 79 -263 182 -357 212 -22 7 -40 21 -44 33 -5
18 -8 19 -15 6 -8 -15 -15 -15 -72 -1 -34 8 -127 19 -207 23 -128 6 -134 7
-52 8 l92 2 0 70 0 70 -65 0 -65 0 0 -40z m-82 -117 c-10 -2 -26 -2 -35 0 -10
3 -2 5 17 5 19 0 27 -2 18 -5z m-81 -9 c-3 -3 -12 -4 -19 -1 -8 3 -5 6 6 6 11
1 17 -2 13 -5z m-149 -256 c26 -26 11 -48 -65 -97 -89 -57 -110 -62 -119 -26
-8 33 5 47 85 95 73 43 81 46 99 28z m213 -87 c23 -18 23 -20 6 -38 -9 -11
-54 -38 -100 -61 -99 -50 -182 -114 -237 -183 -63 -80 -47 -81 28 -3 78 82
174 148 247 169 65 20 74 26 85 61 8 28 8 28 9 4 1 -39 -10 -49 -85 -76 -99
-35 -167 -80 -235 -152 -32 -34 -59 -66 -59 -70 0 -4 19 -17 41 -29 l42 -23
62 58 c53 50 144 112 163 112 3 0 -28 -22 -69 -50 -42 -27 -93 -68 -113 -90
-32 -36 -37 -47 -36 -88 1 -26 -6 -74 -14 -107 -9 -33 -16 -72 -16 -86 0 -24
-2 -25 -37 -20 -35 6 -38 9 -41 43 -2 23 9 71 26 122 28 80 28 86 12 101 -9 8
-22 15 -28 15 -19 0 -69 49 -82 79 -11 27 -9 35 10 65 49 80 185 181 317 236
83 35 76 34 104 11z m138 -55 c-12 -10 -79 -16 -79 -6 0 5 19 10 42 10 23 0
39 -2 37 -4z m219 -156 c34 -16 62 -32 62 -35 0 -3 -19 4 -42 16 -24 12 -61
28 -83 35 -22 7 -31 13 -20 13 11 1 48 -12 83 -29z m93 -177 c50 -52 106 -139
97 -148 -2 -2 -16 21 -32 51 -16 30 -57 81 -94 115 -36 34 -57 57 -46 51 10
-5 44 -37 75 -69z m-1241 37 c0 -5 -7 -10 -15 -10 -8 0 -15 5 -15 10 0 6 7 10
15 10 8 0 15 -4 15 -10z m50 -123 c-11 -18 -20 -40 -20 -49 0 -9 -4 -19 -9
-23 -6 -3 -6 7 0 27 15 56 31 88 40 83 4 -3 -1 -20 -11 -38z m-63 -29 c-3 -7
-5 -2 -5 12 0 14 2 19 5 13 2 -7 2 -19 0 -25z m-11 -89 c-3 -17 -6 -44 -6 -60
0 -16 -4 -29 -10 -29 -11 0 -13 62 -4 98 10 34 27 27 20 -9z m30 -91 c-1 -62
2 -142 6 -178 5 -49 5 -57 -3 -32 -14 47 -28 39 -18 -10 13 -69 11 -88 -9 -88
-11 0 -27 9 -37 20 -10 11 -21 17 -25 15 -4 -3 -7 1 -7 8 2 21 -15 111 -24
129 -5 9 -24 19 -42 21 -17 3 7 4 56 3 l87 -1 0 90 c0 77 6 135 15 135 1 0 2
-51 1 -112z m1351 60 c-3 -7 -5 -2 -5 12 0 14 2 19 5 13 2 -7 2 -19 0 -25z
m-1113 -54 c3 -9 6 -49 6 -90 0 -66 -2 -74 -19 -74 -13 0 -20 10 -25 31 -8 42
-8 134 1 142 11 12 31 7 37 -9z m1285 -138 c-7 -57 -28 -130 -35 -124 -2 2 3
26 11 53 8 26 15 68 15 92 0 24 4 42 8 39 5 -3 5 -30 1 -60z m-182 22 c-3 -8
-6 -5 -6 6 -1 11 2 17 5 13 3 -3 4 -12 1 -19z m-17 -55 c-11 -17 -11 -17 -6 0
3 10 6 24 7 30 0 9 2 9 5 0 3 -7 0 -20 -6 -30z m-1303 -105 c-3 -8 -6 -5 -6 6
-1 11 2 17 5 13 3 -3 4 -12 1 -19z m-88 -68 c0 -9 -4 -8 -9 5 -5 11 -9 27 -9
35 0 9 4 8 9 -5 5 -11 9 -27 9 -35z m170 -137 c17 -35 29 -63 26 -63 -14 0
-106 214 -104 244 0 6 11 -18 23 -54 13 -36 37 -93 55 -127z m-139 52 c0 -5
-5 -3 -10 5 -5 8 -10 20 -10 25 0 6 5 3 10 -5 5 -8 10 -19 10 -25z m705 -68
c6 -6 -5 -1 -23 9 -18 10 -41 28 -50 38 -15 18 47 -23 73 -47z m831 36 c-38
-74 -163 -183 -261 -229 -58 -27 -75 -30 -75 -10 0 8 28 27 63 44 81 38 176
110 218 166 19 25 41 47 49 49 8 3 16 5 18 6 1 0 -4 -11 -12 -26z m-1502 -40
c9 -18 14 -33 12 -33 -6 0 -36 55 -36 66 0 11 5 3 24 -33z m736 -23 c8 -5 11
-10 5 -10 -5 0 -17 5 -25 10 -8 5 -10 10 -5 10 6 0 17 -5 25 -10z m47 -16 c-3
-3 -12 -4 -19 -1 -8 3 -5 6 6 6 11 1 17 -2 13 -5z m56 -11 c-7 -2 -21 -2 -30
0 -10 3 -4 5 12 5 17 0 24 -2 18 -5z m-48 -80 l50 -13 -43 5 c-24 3 -58 12
-75 20 -22 10 -24 13 -7 8 14 -3 48 -12 75 -20z"/>
<path d="M3900 3831 c0 -6 5 -13 11 -17 25 -15 160 -209 228 -327 41 -70 75
-127 77 -127 20 0 -126 245 -225 377 -71 96 -91 116 -91 94z"/>
<path d="M3061 3774 c-6 -15 -10 -28 -9 -29 2 -1 45 -24 96 -50 85 -45 94 -48
109 -33 8 9 13 23 10 31 -6 15 -164 107 -184 107 -5 0 -15 -12 -22 -26z"/>
<path d="M3886 3782 c-4 -7 -3 -12 1 -12 23 0 243 -330 243 -365 0 -8 -34 -33
-75 -56 -65 -35 -74 -43 -65 -59 19 -36 11 -67 -28 -102 -31 -28 -36 -37 -25
-47 22 -20 15 -29 -35 -47 l-48 -17 22 -24 c28 -30 41 -30 21 1 -15 22 -15 23
19 34 33 10 36 9 45 -16 20 -52 59 -215 65 -271 7 -56 23 -105 24 -69 0 31
-40 222 -68 324 l-29 101 35 37 c23 26 32 44 28 57 -3 10 -8 27 -11 37 -4 13
6 23 41 42 66 34 94 58 94 80 0 34 -108 203 -236 369 -8 10 -13 11 -18 3z"/>
<path d="M3319 3651 c-41 -42 -41 -107 0 -153 25 -28 36 -33 76 -33 40 0 51 5
76 33 41 46 41 107 0 151 -24 26 -36 31 -76 31 -38 0 -52 -5 -76 -29z"/>
<path d="M1902 3619 c-18 -12 -31 -23 -29 -26 5 -4 77 36 77 43 0 9 -16 3 -48
-17z"/>
<path d="M1438 3623 c-10 -2 -18 -13 -18 -23 0 -34 -12 -50 -36 -50 -26 0 -29
-7 -14 -44 10 -27 56 -56 90 -56 33 0 80 53 80 90 0 22 -9 41 -29 61 -29 28
-38 31 -73 22z"/>
<path d="M1683 3577 c-18 -12 -33 -25 -33 -29 0 -6 64 33 79 48 13 12 -18 0
-46 -19z"/>
<path d="M3569 3522 c5 -10 48 -59 96 -109 l86 -92 -3 -52 c-2 -29 -7 -54 -13
-55 -5 -2 -39 39 -73 91 -35 52 -67 95 -72 95 -4 0 22 -44 58 -97 35 -54 90
-150 121 -213 50 -102 91 -174 91 -159 0 2 -29 63 -64 134 -57 115 -62 131
-48 142 13 10 19 10 33 -3 23 -21 79 -27 108 -12 14 7 34 28 44 46 17 29 18
39 8 73 -15 50 -61 82 -108 75 -28 -4 -36 0 -54 26 -26 36 -15 48 45 48 40 0
72 -25 122 -95 18 -24 24 -28 35 -17 11 10 10 12 -3 12 -9 0 -32 22 -52 49
-26 37 -45 53 -75 62 -38 11 -45 10 -107 -21 l-67 -33 -48 54 c-26 30 -48 57
-49 62 0 4 -5 7 -10 7 -7 0 -7 -6 -1 -18z m200 -118 c16 -20 18 -31 10 -45
-13 -26 -20 -24 -58 15 -31 32 -32 35 -14 45 28 16 40 13 62 -15z"/>
<path d="M1595 3512 c-39 -24 -88 -89 -81 -107 4 -11 22 -15 66 -15 74 0 100
20 100 78 0 62 -30 77 -85 44z"/>
<path d="M1939 3489 c-24 -17 -67 -54 -96 -82 -40 -39 -50 -54 -41 -64 6 -7
15 -13 20 -13 5 0 44 30 86 66 110 95 103 86 88 106 -12 17 -16 16 -57 -13z"/>
<path d="M1290 3458 l-23 -33 28 28 c15 16 25 31 22 33 -3 3 -15 -10 -27 -28z"/>
<path d="M2831 3468 c-5 -13 -12 -39 -15 -58 -4 -19 -10 -42 -12 -52 -4 -12
16 -27 77 -60 95 -50 255 -195 267 -243 5 -16 19 -37 33 -47 20 -15 30 -17 56
-8 25 9 37 8 61 -4 96 -50 150 -397 94 -601 -41 -148 -126 -298 -221 -390 -37
-35 -54 -75 -32 -75 14 0 105 102 146 163 41 62 54 74 31 28 -21 -39 -81 -118
-127 -167 -37 -38 -39 -41 -22 -56 40 -35 62 -32 114 12 41 35 49 38 49 22 0
-11 7 -23 16 -26 17 -7 64 18 64 33 0 17 74 80 101 86 43 10 52 29 126 265 4
11 8 8 15 -10 6 -16 5 -40 -2 -68 -6 -24 -8 -47 -5 -51 7 -13 97 -33 106 -24
12 12 38 118 44 177 5 59 -2 40 -32 -84 -17 -69 -20 -75 -45 -78 -33 -4 -32
-10 -12 96 8 46 13 89 11 97 -3 7 -22 15 -41 19 -35 7 -36 8 -36 54 0 91 1 92
96 92 l84 0 0 -45 c0 -38 3 -45 20 -45 17 0 20 7 20 45 0 27 5 45 12 45 8 0 9
-28 5 -102 -7 -119 -47 -281 -101 -407 -33 -79 -37 -101 -16 -101 14 0 79 176
105 283 14 55 30 148 36 206 8 74 16 110 27 119 14 11 14 12 -1 12 -20 0 -23
36 -4 43 9 4 8 8 -3 16 -27 20 -40 12 -40 -23 l0 -34 -172 -2 c-95 0 -174 -2
-176 -4 -2 -2 -8 -35 -13 -72 -9 -70 -31 -155 -51 -207 -19 -49 -19 -22 0 34
27 79 45 184 39 230 -3 21 -1 42 4 45 14 8 11 144 -6 232 -26 138 -86 262
-187 390 -67 83 -82 91 -117 58 -15 -14 -31 -26 -37 -26 -5 0 -37 24 -70 53
-33 28 -78 66 -99 82 -35 28 -37 33 -26 54 18 33 8 49 -51 76 -65 31 -76 31
-87 3z m453 -409 c10 -17 16 -32 14 -33 -1 -2 -24 -6 -49 -9 -38 -5 -50 -3
-64 13 -10 11 -15 23 -10 28 4 4 10 1 12 -5 3 -7 18 -13 34 -13 24 0 29 4 29
25 0 34 12 32 34 -6z m137 -928 c-17 -34 -33 -61 -36 -61 -3 0 10 29 27 65 18
35 34 63 36 61 2 -2 -11 -31 -27 -65z m-50 -88 c-15 -28 -40 -59 -41 -50 0 8
41 67 47 67 2 0 -1 -8 -6 -17z"/>
<path d="M2583 3434 c-27 -12 -10 -21 47 -27 34 -4 70 -12 81 -18 24 -12 71
-8 76 7 6 19 -172 52 -204 38z"/>
<path d="M3041 3414 c1 -12 119 -107 119 -96 0 5 -21 27 -47 48 -70 55 -73 57
-72 48z"/>
<path d="M1457 3302 c-50 -84 -117 -223 -117 -244 0 -7 22 33 49 89 27 55 67
128 90 161 23 34 37 63 33 66 -5 3 -29 -30 -55 -72z"/>
<path d="M2706 3345 c-15 -22 -23 -25 -81 -25 -82 0 -85 -15 -5 -23 73 -8 86
-4 99 35 14 40 8 46 -13 13z"/>
<path d="M1038 3244 c-62 -130 -108 -272 -133 -403 -26 -141 -15 -134 15 9 32
155 73 277 137 403 24 49 43 93 41 99 -2 6 -29 -43 -60 -108z"/>
<path d="M3487 3342 c-53 -58 26 -159 83 -107 15 13 21 8 62 -63 49 -82 108
-217 128 -292 7 -25 20 -53 30 -62 12 -12 21 -45 30 -116 18 -151 21 -146 -80
-153 l-85 -5 93 -2 92 -2 -1 68 c0 37 -6 104 -13 150 l-12 82 30 8 c19 5 32
16 34 28 4 18 3 18 -10 2 -7 -10 -26 -20 -43 -24 -30 -5 -30 -5 -53 68 -23 73
-89 211 -155 323 -69 117 -95 136 -130 97z"/>
<path d="M4282 3344 c-11 -12 -8 -27 17 -92 54 -141 122 -451 106 -489 -4 -10
-8 -139 -9 -287 l-1 -269 23 -10 c19 -9 21 -16 17 -46 -5 -36 -5 -36 6 -6 36
104 50 396 28 580 -16 134 -59 292 -123 453 -35 88 -55 151 -51 163 7 23 5 23
-13 3z"/>
<path d="M821 3215 c-62 -171 -95 -345 -107 -557 -7 -116 -7 -118 14 -118 21
0 22 5 22 88 1 200 51 438 137 639 2 6 -4 16 -15 22 -19 10 -23 4 -51 -74z"/>
<path d="M4230 3287 c0 -3 7 -24 16 -48 9 -24 31 -116 49 -204 19 -88 34 -149
34 -137 2 56 -73 377 -90 388 -5 3 -9 3 -9 1z"/>
<path d="M1453 3147 c-47 -82 -95 -197 -84 -197 5 0 16 21 26 48 9 26 37 85
62 131 24 46 43 85 40 87 -2 2 -22 -29 -44 -69z"/>
<path d="M4194 3146 c20 -61 58 -225 71 -306 20 -120 25 -143 31 -138 14 14
-71 407 -97 446 -9 15 -10 15 -5 -2z"/>
<path d="M2413 3133 c-17 -3 -23 -11 -23 -29 0 -23 3 -25 30 -20 17 3 44 9 60
12 21 4 30 11 30 25 0 16 -7 19 -37 18 -21 -1 -48 -4 -60 -6z"/>
<path d="M1210 3115 c-10 -12 -9 -16 5 -21 23 -9 40 10 22 25 -11 9 -17 8 -27
-4z"/>
<path d="M3835 3109 c-11 -17 1 -21 15 -4 8 9 8 15 2 15 -6 0 -14 -5 -17 -11z"/>
<path d="M4084 3087 c55 -175 86 -366 86 -521 0 -104 0 -107 25 -116 21 -8 25
-16 25 -49 0 -99 -55 -366 -94 -462 -6 -13 5 -21 48 -39 30 -12 60 -19 65 -16
25 16 93 308 107 456 4 50 11 79 22 88 14 11 13 12 -5 12 -19 0 -22 -7 -27
-57 -13 -126 -46 -313 -71 -398 -14 -49 -28 -91 -30 -93 -2 -2 -24 6 -50 17
-34 15 -46 25 -41 36 38 99 86 346 86 442 0 59 -2 64 -25 73 -25 9 -25 11 -25
121 0 61 -7 158 -16 216 -15 105 -56 263 -75 292 -9 14 -10 14 -5 -2z"/>
<path d="M1166 2932 c-12 -20 -46 -246 -45 -300 2 -47 3 -40 10 35 5 51 17
132 29 179 19 80 21 110 6 86z"/>
<path d="M2513 2903 c9 -2 25 -2 35 0 9 3 1 5 -18 5 -19 0 -27 -2 -17 -5z"/>
<path d="M2580 2893 c8 -3 27 -12 43 -20 15 -7 27 -11 27 -9 0 8 -58 36 -72
35 -9 0 -8 -2 2 -6z"/>
<path d="M4332 2845 c0 -16 2 -22 5 -12 2 9 2 23 0 30 -3 6 -5 -1 -5 -18z"/>
<path d="M2487 2850 c-147 -44 -173 -248 -42 -326 89 -52 203 -15 246 80 21
47 23 67 9 118 -26 91 -129 153 -213 128z m93 -56 c100 -40 119 -166 34 -233
-15 -12 -34 -21 -43 -21 -9 1 -1 7 16 15 81 35 96 141 29 202 -31 28 -43 33
-87 33 -46 0 -55 -4 -90 -39 -43 -42 -54 -40 -14 3 24 26 77 55 102 56 7 0 31
-7 53 -16z m-12 -70 c15 -10 22 -25 22 -49 0 -41 -22 -65 -60 -65 -38 0 -60
24 -60 65 0 35 28 65 60 65 9 0 26 -7 38 -16z m-171 -71 c-3 -10 -5 -2 -5 17
0 19 2 27 5 18 2 -10 2 -26 0 -35z m37 -73 c6 -9 1 -5 -11 8 -13 13 -23 28
-23 35 0 7 6 3 12 -8 6 -11 16 -27 22 -35z m101 -44 c11 -3 2 -3 -19 -1 -22 2
-44 9 -50 15 -7 7 -2 8 19 1 17 -5 39 -12 50 -15z"/>
<path d="M2684 2830 c16 -19 37 -53 47 -75 10 -22 19 -33 19 -24 0 19 -50 99
-76 119 -10 8 -6 -1 10 -20z"/>
<path d="M1290 2798 c-22 -104 -24 -175 -6 -203 9 -14 22 -25 28 -25 6 0 4 8
-5 18 -20 22 -23 123 -6 202 6 28 9 54 6 56 -3 3 -10 -19 -17 -48z"/>
<path d="M4342 2775 c0 -16 2 -22 5 -12 2 9 2 23 0 30 -3 6 -5 -1 -5 -18z"/>
<path d="M4353 2670 c0 -30 2 -43 4 -27 2 15 2 39 0 55 -2 15 -4 2 -4 -28z"/>
<path d="M2753 2670 c0 -25 2 -35 4 -22 2 12 2 32 0 45 -2 12 -4 2 -4 -23z"/>
<path d="M2818 2663 c12 -2 32 -2 45 0 12 2 2 4 -23 4 -25 0 -35 -2 -22 -4z"/>
<path d="M3701 2656 c-18 -21 3 -56 34 -56 29 0 39 14 31 46 -7 28 -46 33 -65
10z"/>
<path d="M2122 2587 c5 -81 54 -185 105 -224 l35 -27 29 34 c33 41 35 50 11
50 -36 0 -101 102 -102 160 -1 56 -10 70 -47 70 l-35 0 4 -63z"/>
<path d="M2705 2546 c-17 -23 -50 -51 -75 -63 -24 -13 -37 -23 -29 -23 24 0
78 40 112 82 17 21 29 40 26 42 -2 1 -18 -15 -34 -38z"/>
<path d="M1270 2449 c-16 -28 -5 -98 37 -244 34 -121 114 -305 131 -305 6 0
-3 24 -19 54 -42 76 -90 196 -94 231 -1 17 -12 68 -24 115 -24 97 -26 141 -9
158 9 9 9 12 0 12 -6 0 -16 -9 -22 -21z"/>
<path d="M2077 2396 c-17 -13 -17 -15 7 -42 23 -27 26 -28 42 -12 16 15 16 21
4 43 -15 28 -27 31 -53 11z"/>
<path d="M4273 2355 c0 -33 2 -45 4 -27 2 18 2 45 0 60 -2 15 -4 0 -4 -33z"/>
<path d="M4262 2240 c0 -14 2 -19 5 -12 2 6 2 18 0 25 -3 6 -5 1 -5 -13z"/>
<path d="M960 2175 c0 -8 7 -15 15 -15 8 0 15 7 15 15 0 8 -7 15 -15 15 -8 0
-15 -7 -15 -15z"/>
<path d="M985 2130 c3 -5 8 -10 11 -10 2 0 4 5 4 10 0 6 -5 10 -11 10 -5 0 -7
-4 -4 -10z"/>
<path d="M935 2110 c24 -81 99 -251 81 -185 -9 36 -73 195 -81 203 -4 4 -4 -4
0 -18z"/>
<path d="M1234 2102 c3 -18 24 -70 46 -115 50 -103 45 -73 -10 53 -23 54 -39
81 -36 62z"/>
<path d="M4421 2094 c0 -11 3 -14 6 -6 3 7 2 16 -1 19 -3 4 -6 -2 -5 -13z"/>
<path d="M1000 2089 c0 -5 5 -7 10 -4 6 3 10 8 10 11 0 2 -4 4 -10 4 -5 0 -10
-5 -10 -11z"/>
<path d="M3692 2068 c-18 -24 -52 -98 -45 -98 10 0 27 27 47 74 16 38 15 44
-2 24z"/>
<path d="M1020 2047 c0 -21 39 -111 46 -105 4 5 -32 107 -42 117 -2 2 -4 -3
-4 -12z"/>
<path d="M4376 1953 c-26 -86 -145 -326 -209 -423 l-56 -85 27 -28 c17 -16 34
-25 43 -22 20 8 108 142 169 257 48 92 110 236 110 257 0 6 -16 19 -35 28 -32
15 -35 20 -30 45 11 48 -1 31 -19 -29z"/>
<path d="M3518 1895 c-21 -46 -4 -56 22 -13 23 39 25 48 7 48 -7 0 -20 -16
-29 -35z"/>
<path d="M1456 1887 l-29 -24 33 -48 c58 -84 150 -185 169 -185 10 0 25 10 33
22 14 21 12 26 -37 85 -29 34 -70 86 -91 117 -22 31 -41 56 -44 56 -3 0 -18
-11 -34 -23z"/>
<path d="M1263 1863 c-35 -17 -40 -32 -23 -64 14 -26 43 -24 76 5 27 23 28 24
11 50 -20 30 -21 30 -64 9z m55 -25 c2 -10 -8 -24 -24 -34 -25 -17 -27 -17
-40 1 -19 25 -18 30 9 43 29 14 51 11 55 -10z"/>
<path d="M4066 1873 c-13 -14 -3 -22 59 -48 36 -16 65 -34 65 -40 0 -7 -7 -32
-15 -56 -20 -55 -4 -39 18 19 28 72 28 72 -70 111 -28 11 -54 17 -57 14z"/>
<path d="M3683 1792 c-23 -37 -76 -107 -119 -156 -87 -101 -86 -114 2 -16 85
94 187 241 167 240 -4 -1 -27 -31 -50 -68z"/>
<path d="M1054 1835 c-19 -14 -19 -14 2 -9 18 5 28 -8 68 -79 48 -86 162 -237
178 -237 5 0 -16 30 -45 68 -65 79 -125 171 -151 230 -21 47 -24 48 -52 27z"/>
<path d="M3161 1784 c-128 -94 -297 -163 -451 -184 -47 -6 -142 -10 -211 -8
-140 3 -153 -1 -163 -55 -3 -18 -6 -99 -8 -181 -2 -142 -1 -150 19 -163 33
-22 63 -2 63 43 l0 35 43 -3 c36 -3 42 -6 45 -28 6 -55 12 -68 37 -74 35 -9
64 9 81 49 13 31 17 33 76 40 35 3 100 15 146 26 102 23 99 23 107 -1 3 -11
11 -20 17 -20 5 0 7 7 4 15 -3 8 -9 21 -12 29 -3 9 4 16 23 21 44 10 223 97
223 107 0 11 4 13 -78 -30 -92 -48 -254 -99 -352 -111 -94 -12 -280 -15 -329
-5 -30 6 -32 9 -29 43 l3 36 64 -3 c36 -2 114 2 175 8 121 12 136 20 136 74 0
30 2 32 83 54 153 42 375 169 397 228 12 30 6 61 -18 91 l-17 22 -74 -55z m4
-80 c-26 -20 -55 -36 -55 -30 0 5 63 46 70 46 3 -1 -4 -8 -15 -16z m-65 -39
c0 -6 -117 -65 -127 -65 -4 1 21 16 57 35 72 38 70 37 70 30z m-166 -80 c-17
-8 -44 -16 -60 -20 -16 -3 -6 4 21 14 57 22 86 26 39 6z m-114 -35 c-14 -4
-34 -8 -45 -8 -16 0 -15 2 5 8 14 4 34 8 45 8 16 0 15 -2 -5 -8z m-82 -17
c-11 -3 -18 -14 -18 -28 0 -32 -28 -45 -92 -43 l-53 1 59 6 c58 6 67 12 80 54
3 9 13 16 23 16 17 -1 17 -2 1 -6z"/>
<path d="M1350 1804 c0 -27 216 -282 228 -270 2 3 -28 40 -68 83 -40 43 -90
103 -112 135 -36 54 -48 67 -48 52z"/>
<path d="M1926 1730 c-46 -51 -46 -80 -1 -114 89 -69 322 -167 360 -152 11 4
15 23 15 79 l0 73 -47 13 c-52 13 -209 86 -259 120 l-31 21 -37 -40z m64 -87
c0 -7 -39 17 -46 28 -3 6 5 3 20 -6 14 -10 26 -19 26 -22z m80 -49 c0 -2 -9 0
-20 6 -11 6 -20 13 -20 16 0 2 9 0 20 -6 11 -6 20 -13 20 -16z m191 -34 c7 0
9 -3 6 -6 -8 -9 -97 25 -97 36 0 4 18 0 40 -11 21 -10 45 -19 51 -19z"/>
<path d="M4097 1757 l23 -13 -41 -69 c-22 -39 -52 -85 -66 -103 l-25 -33 -34
21 c-19 11 -51 30 -71 42 -20 12 -33 17 -29 10 11 -19 128 -83 141 -78 14 5
76 96 112 166 22 43 24 53 12 61 -8 5 -21 9 -29 8 -10 0 -7 -4 7 -12z"/>
<path d="M3547 1683 c-47 -61 -140 -152 -220 -217 -26 -21 -45 -41 -43 -44 8
-7 132 97 197 165 74 77 134 153 121 153 -6 0 -31 -26 -55 -57z"/>
<path d="M1754 1675 c-14 -25 -36 -52 -48 -60 -13 -10 -21 -26 -21 -45 0 -33
9 -39 22 -15 8 13 16 10 48 -18 61 -51 152 -110 233 -151 82 -41 247 -99 265
-93 7 2 -28 16 -78 31 -141 44 -291 125 -413 224 -37 31 -41 37 -29 50 11 11
19 11 35 3 45 -24 92 1 92 48 0 25 -41 71 -64 71 -8 0 -27 -20 -42 -45z"/>
<path d="M1489 1441 c-68 -69 -8 -184 87 -167 110 21 91 196 -21 196 -27 0
-44 -8 -66 -29z"/>
<path d="M1767 1433 c-11 -11 -8 -58 5 -71 29 -29 78 -7 78 35 0 32 -61 59
-83 36z"/>
<path d="M2130 1422 c0 -10 120 -46 127 -38 3 3 -21 12 -53 22 -33 9 -62 18
-66 21 -5 2 -8 0 -8 -5z"/>
<path d="M1718 1317 c32 -39 296 -187 309 -173 3 3 -32 23 -78 45 -46 22 -113
59 -149 83 -93 63 -98 66 -82 45z"/>
<path d="M2145 1220 c11 -5 27 -9 35 -9 9 0 8 4 -5 9 -11 5 -27 9 -35 9 -9 0
-8 -4 5 -9z"/>
<path d="M3670 1145 c-47 -42 -139 -112 -205 -157 -134 -90 -145 -98 -95 -73
87 44 313 215 374 284 35 39 11 21 -74 -54z"/>
<path d="M3560 1168 c-25 -22 -89 -70 -143 -105 -54 -36 -96 -68 -93 -70 11
-11 269 175 280 203 7 19 7 19 -44 -28z"/>
<path d="M3055 1083 c-222 -93 -503 -113 -820 -57 -21 3 -25 2 -15 -4 35 -22
173 -36 345 -36 204 1 321 20 477 78 49 19 91 29 94 25 3 -5 10 -9 16 -9 7 0
6 6 -2 15 -16 19 -22 18 -95 -12z"/>
<path d="M2400 933 c0 -6 -3 -18 -6 -27 -4 -11 0 -16 14 -16 11 0 22 8 25 20
5 19 14 20 139 22 148 2 125 6 -55 10 -84 2 -117 0 -117 -9z"/>
<path d="M3060 844 c-18 -8 -79 -27 -135 -41 -113 -30 -152 -50 -54 -28 95 22
229 66 229 76 0 11 2 11 -40 -7z"/>
<path d="M2478 833 c46 -2 118 -2 160 0 42 1 5 3 -83 3 -88 0 -123 -2 -77 -3z"/>
<path d="M2394 788 c14 -10 265 -9 289 0 9 4 -55 7 -142 7 -87 0 -154 -3 -147
-7z"/>
</g>
</svg>